<svg
   xmlns:svg="http://www.w3.org/2000/svg"
   xmlns="http://www.w3.org/2000/svg"
   xmlns:xlink="http://www.w3.org/1999/xlink"
   version="1.0"
   width="323.424"
   height="150.946"
   id="svg2403"
   xml:space="preserve">
<text x="0" y="8.616" id="text1000">
  <tspan x="0" y="8.616" fill="#000000"  font-variant="normal" font-weight="normal" font-style="normal" font-family="Bitstream Vera Sans" font-size="12" id="tspan1001">solver-formulation1-1</tspan>
</text>
<path
 fill="#d7efc5" stroke="none"
 d="M 25.9811 61.931 L 25.9811,61.931L 44.0561,61.931L 44.0561,67.316L 25.9811,67.316Z"/>
<path
 fill="none" stroke="#000000" stroke-width="1.44" stroke-linecap="butt" stroke-linejoin="miter"
 d="M 33.0746 64.6235 L 36.9626 64.6235 "/>
<path
 fill="#d7efc5" stroke="none"
 d="M 25.9811 54.371 L 25.9811,54.371L 44.0561,54.371L 44.0561,59.756L 25.9811,59.756Z"/>
<path
 fill="none" stroke="#000000" stroke-width="1.44" stroke-linecap="butt" stroke-linejoin="miter"
 d="M 33.0746 57.0635 L 36.9626 57.0635 "/>
<path
 fill="#d7efc5" stroke="none"
 d="M 25.9811 34.9772 L 25.9811,34.9772L 44.0561,34.9772L 44.0561,40.3622L 25.9811,40.3622Z"/>
<path
 fill="none" stroke="#000000" stroke-width="1.44" stroke-linecap="butt" stroke-linejoin="miter"
 d="M 33.0746 37.6697 L 36.9626 37.6697 "/>
<path
 fill="#d7efc5" stroke="none"
 d="M 25.9811 27.4172 L 25.9811,27.4172L 44.0561,27.4172L 44.0561,32.8022L 25.9811,32.8022Z"/>
<path
 fill="none" stroke="#000000" stroke-width="1.44" stroke-linecap="butt" stroke-linejoin="miter"
 d="M 33.0746 30.1097 L 36.9626 30.1097 "/>
<path
 fill="none" stroke="#5c5c5c" stroke-width="0.5" stroke-linecap="butt" stroke-linejoin="miter"
 d=""/>
<path
 fill="none" stroke="#5c5c5c" stroke-width="0.5" stroke-linecap="butt" stroke-linejoin="miter"
 d=""/>
<path
 fill="none" stroke="#5c5c5c" stroke-width="0.5" stroke-linecap="butt" stroke-linejoin="miter"
 d=""/>
<path
 fill="none" stroke="#5c5c5c" stroke-width="0.5" stroke-linecap="butt" stroke-linejoin="miter"
 d=""/>
<path
 fill="none" stroke="#5c5c5c" stroke-width="0.5" stroke-linecap="butt" stroke-linejoin="miter"
 d=""/>
<path
 fill="none" stroke="#5c5c5c" stroke-width="0.5" stroke-linecap="butt" stroke-linejoin="miter"
 d=""/>
<path
 fill="none" stroke="#5c5c5c" stroke-width="0.5" stroke-linecap="butt" stroke-linejoin="miter"
 d=""/>
<path
 fill="none" stroke="#5c5c5c" stroke-width="0.5" stroke-linecap="butt" stroke-linejoin="miter"
 d=""/>
<path
 fill="none" stroke="#5c5c5c" stroke-width="0.5" stroke-linecap="butt" stroke-linejoin="miter"
 d=""/>
<path
 fill="none" stroke="#5c5c5c" stroke-width="0.5" stroke-linecap="butt" stroke-linejoin="miter"
 d=""/>
<path
 fill="none" stroke="#5c5c5c" stroke-width="0.5" stroke-linecap="butt" stroke-linejoin="miter"
 d=""/>
<path
 fill="none" stroke="#5c5c5c" stroke-width="0.5" stroke-linecap="butt" stroke-linejoin="miter"
 d=""/>
<path
 fill="none" stroke="#5c5c5c" stroke-width="0.5" stroke-linecap="butt" stroke-linejoin="miter"
 d=""/>
<path
 fill="none" stroke="#5c5c5c" stroke-width="0.5" stroke-linecap="butt" stroke-linejoin="miter"
 d=""/>
<path
 fill="none" stroke="#5c5c5c" stroke-width="0.5" stroke-linecap="butt" stroke-linejoin="miter"
 d=""/>
<path
 fill="none" stroke="#5c5c5c" stroke-width="0.5" stroke-linecap="butt" stroke-linejoin="miter"
 d=""/>
<path
 fill="none" stroke="#5c5c5c" stroke-width="0.5" stroke-linecap="butt" stroke-linejoin="miter"
 d=""/>
<path
 fill="none" stroke="#5c5c5c" stroke-width="0.5" stroke-linecap="butt" stroke-linejoin="miter"
 d=""/>
<path
 fill="none" stroke="#5c5c5c" stroke-width="0.5" stroke-linecap="butt" stroke-linejoin="miter"
 d=""/>
<path
 fill="none" stroke="#5c5c5c" stroke-width="0.5" stroke-linecap="butt" stroke-linejoin="miter"
 d=""/>
<path
 fill="none" stroke="#5c5c5c" stroke-width="0.5" stroke-linecap="butt" stroke-linejoin="miter"
 d=""/>
<path
 fill="none" stroke="#5c5c5c" stroke-width="0.5" stroke-linecap="butt" stroke-linejoin="miter"
 d=""/>
<path
 fill="none" stroke="#5c5c5c" stroke-width="0.5" stroke-linecap="butt" stroke-linejoin="miter"
 d=""/>
<path
 fill="none" stroke="#5c5c5c" stroke-width="0.5" stroke-linecap="butt" stroke-linejoin="miter"
 d=""/>
<path
 fill="none" stroke="#5c5c5c" stroke-width="0.5" stroke-linecap="butt" stroke-linejoin="miter"
 d=""/>
<path
 fill="none" stroke="#5c5c5c" stroke-width="0.5" stroke-linecap="butt" stroke-linejoin="miter"
 d=""/>
<path
 fill="none" stroke="#5c5c5c" stroke-width="0.5" stroke-linecap="butt" stroke-linejoin="miter"
 d=""/>
<path
 fill="none" stroke="#5c5c5c" stroke-width="0.5" stroke-linecap="butt" stroke-linejoin="miter"
 d=""/>
<path
 fill="none" stroke="#5c5c5c" stroke-width="0.5" stroke-linecap="butt" stroke-linejoin="miter"
 d=""/>
<path
 fill="none" stroke="#5c5c5c" stroke-width="0.5" stroke-linecap="butt" stroke-linejoin="miter"
 d=""/>
<path
 fill="none" stroke="#5c5c5c" stroke-width="0.5" stroke-linecap="butt" stroke-linejoin="miter"
 d=""/>
<path
 fill="none" stroke="#5c5c5c" stroke-width="0.5" stroke-linecap="butt" stroke-linejoin="miter"
 d=""/>
<path
 fill="none" stroke="#5c5c5c" stroke-width="0.5" stroke-linecap="butt" stroke-linejoin="miter"
 d=""/>
<path
 fill="none" stroke="#5c5c5c" stroke-width="0.5" stroke-linecap="butt" stroke-linejoin="miter"
 d=""/>
<path
 fill="none" stroke="#5c5c5c" stroke-width="0.5" stroke-linecap="butt" stroke-linejoin="miter"
 d=""/>
<path
 fill="none" stroke="#5c5c5c" stroke-width="0.5" stroke-linecap="butt" stroke-linejoin="miter"
 d=""/>
<path
 fill="none" stroke="#5c5c5c" stroke-width="0.5" stroke-linecap="butt" stroke-linejoin="miter"
 d=""/>
<path
 fill="none" stroke="#5c5c5c" stroke-width="0.5" stroke-linecap="butt" stroke-linejoin="miter"
 d=""/>
<path
 fill="#d90000" stroke="#000000" stroke-width="0.72" stroke-linecap="butt" stroke-linejoin="miter"
 d="M 31.4561 64.6235 A 2.5575,2.5575 0 0,1 26.3411,64.6235A 2.5575,2.5575 0 0,1 31.4561,64.6235Z"/>
<path
 fill="#40c040" stroke="#000000" stroke-width="0.72" stroke-linecap="butt" stroke-linejoin="miter"
 d="M 31.4561 57.0635 A 2.5575,2.5575 0 0,1 26.3411,57.0635A 2.5575,2.5575 0 0,1 31.4561,57.0635Z"/>
<path
 fill="#4040c0" stroke="#000000" stroke-width="0.72" stroke-linecap="butt" stroke-linejoin="miter"
 d="M 24.3015 59.5059 A 2.5575,2.5575 0 0,1 19.1865,59.5059A 2.5575,2.5575 0 0,1 24.3015,59.5059Z"/>
<path
 fill="#4040c0" stroke="#000000" stroke-width="0.72" stroke-linecap="butt" stroke-linejoin="miter"
 d="M 17.0888 57.2408 A 2.5575,2.5575 0 0,1 11.9738,57.2408A 2.5575,2.5575 0 0,1 17.0888,57.2408Z"/>
<path
 fill="#4040c0" stroke="#000000" stroke-width="0.72" stroke-linecap="butt" stroke-linejoin="miter"
 d="M 12.615 51.1466 A 2.5575,2.5575 0 0,1 7.5,51.1466A 2.5575,2.5575 0 0,1 12.615,51.1466Z"/>
<path
 fill="#4040c0" stroke="#000000" stroke-width="0.72" stroke-linecap="butt" stroke-linejoin="miter"
 d="M 12.615 43.5866 A 2.5575,2.5575 0 0,1 7.5,43.5866A 2.5575,2.5575 0 0,1 12.615,43.5866Z"/>
<path
 fill="#4040c0" stroke="#000000" stroke-width="0.72" stroke-linecap="butt" stroke-linejoin="miter"
 d="M 17.0888 37.4924 A 2.5575,2.5575 0 0,1 11.9738,37.4924A 2.5575,2.5575 0 0,1 17.0888,37.4924Z"/>
<path
 fill="#4040c0" stroke="#000000" stroke-width="0.72" stroke-linecap="butt" stroke-linejoin="miter"
 d="M 24.3015 35.2273 A 2.5575,2.5575 0 0,1 19.1865,35.2273A 2.5575,2.5575 0 0,1 24.3015,35.2273Z"/>
<path
 fill="#40c040" stroke="#000000" stroke-width="0.72" stroke-linecap="butt" stroke-linejoin="miter"
 d="M 31.4561 37.6697 A 2.5575,2.5575 0 0,1 26.3411,37.6697A 2.5575,2.5575 0 0,1 31.4561,37.6697Z"/>
<path
 fill="#d90000" stroke="#000000" stroke-width="0.72" stroke-linecap="butt" stroke-linejoin="miter"
 d="M 31.4561 30.1097 A 2.5575,2.5575 0 0,1 26.3411,30.1097A 2.5575,2.5575 0 0,1 31.4561,30.1097Z"/>
<path
 fill="#d90000" stroke="#000000" stroke-width="0.72" stroke-linecap="butt" stroke-linejoin="miter"
 d="M 31.0907 22.5585 A 2.5575,2.5575 0 0,1 25.9757,22.5585A 2.5575,2.5575 0 0,1 31.0907,22.5585Z"/>
<path
 fill="#d90000" stroke="#000000" stroke-width="0.72" stroke-linecap="butt" stroke-linejoin="miter"
 d="M 37.5761 18.6735 A 2.5575,2.5575 0 0,1 32.4611,18.6735A 2.5575,2.5575 0 0,1 37.5761,18.6735Z"/>
<path
 fill="#d90000" stroke="#000000" stroke-width="0.72" stroke-linecap="butt" stroke-linejoin="miter"
 d="M 44.0615 22.5585 A 2.5575,2.5575 0 0,1 38.9465,22.5585A 2.5575,2.5575 0 0,1 44.0615,22.5585Z"/>
<path
 fill="#d90000" stroke="#000000" stroke-width="0.72" stroke-linecap="butt" stroke-linejoin="miter"
 d="M 43.6961 30.1097 A 2.5575,2.5575 0 0,1 38.5811,30.1097A 2.5575,2.5575 0 0,1 43.6961,30.1097Z"/>
<path
 fill="#40c040" stroke="#000000" stroke-width="0.72" stroke-linecap="butt" stroke-linejoin="miter"
 d="M 43.6961 37.6697 A 2.5575,2.5575 0 0,1 38.5811,37.6697A 2.5575,2.5575 0 0,1 43.6961,37.6697Z"/>
<path
 fill="#4040c0" stroke="#000000" stroke-width="0.72" stroke-linecap="butt" stroke-linejoin="miter"
 d="M 48.4018 43.5866 A 2.5575,2.5575 0 0,1 43.2868,43.5866A 2.5575,2.5575 0 0,1 48.4018,43.5866Z"/>
<path
 fill="#4040c0" stroke="#000000" stroke-width="0.72" stroke-linecap="butt" stroke-linejoin="miter"
 d="M 48.4018 51.1466 A 2.5575,2.5575 0 0,1 43.2868,51.1466A 2.5575,2.5575 0 0,1 48.4018,51.1466Z"/>
<path
 fill="#40c040" stroke="#000000" stroke-width="0.72" stroke-linecap="butt" stroke-linejoin="miter"
 d="M 43.6961 57.0635 A 2.5575,2.5575 0 0,1 38.5811,57.0635A 2.5575,2.5575 0 0,1 43.6961,57.0635Z"/>
<path
 fill="#d90000" stroke="#000000" stroke-width="0.72" stroke-linecap="butt" stroke-linejoin="miter"
 d="M 43.6961 64.6235 A 2.5575,2.5575 0 0,1 38.5811,64.6235A 2.5575,2.5575 0 0,1 43.6961,64.6235Z"/>
<path
 fill="none" stroke="#000000" stroke-width="0.72" stroke-linecap="butt" stroke-linejoin="miter"
 d="M 28.8986 68.1873 A 1.78191,1.78191 0 0,1 27.1167,69.9692L 23.5529 69.9692 "/>
<text x="16.4504" y="72.6617" id="text1002">
  <tspan x="16.4504" y="72.6617" fill="#000000"  font-variant="normal" font-weight="normal" font-style="normal" font-family="Bitstream Vera Sans" font-size="7.5" id="tspan1003">5&apos;</tspan>
</text>
<text x="161.712" y="8.616" id="text1004">
  <tspan x="161.712" y="8.616" fill="#000000"  font-variant="normal" font-weight="normal" font-style="normal" font-family="Bitstream Vera Sans" font-size="12" id="tspan1005">solver-formulation1-1 solver=1</tspan>
</text>
<path
 fill="none" stroke="#000000" stroke-width="0.72" stroke-linecap="butt" stroke-linejoin="miter"
 d="M 208.931 34.4104 A 15.7708,15.7708 0 0,1 177.389,34.4104A 15.7708,15.7708 0 0,1 208.931,34.4104"/>
<path
 fill="#d7efc5" stroke="none"
 d="M 178.743 52.8795 L 178.743,52.8795L 196.818,52.8795L 196.818,58.2645L 178.743,58.2645Z"/>
<path
 fill="none" stroke="#000000" stroke-width="1.44" stroke-linecap="butt" stroke-linejoin="miter"
 d="M 185.836 55.572 L 189.724 55.572 "/>
<path
 fill="#d7efc5" stroke="none"
 d="M 178.743 45.3195 L 178.743,45.3195L 196.818,45.3195L 196.818,50.7045L 178.743,50.7045Z"/>
<path
 fill="none" stroke="#000000" stroke-width="1.44" stroke-linecap="butt" stroke-linejoin="miter"
 d="M 185.836 48.012 L 189.724 48.012 "/>
<path
 fill="#d7efc5" stroke="none"
 d="M 209.578 19.927 L 209.578,19.927L 209.578,37.552L 203.743,37.552L 203.743,19.927Z"/>
<path
 fill="none" stroke="#000000" stroke-width="1.44" stroke-linecap="butt" stroke-linejoin="miter"
 d="M 206.661 26.7955 L 206.661 30.6835 "/>
<path
 fill="#d7efc5" stroke="none"
 d="M 217.138 19.927 L 217.138,19.927L 217.138,37.552L 211.303,37.552L 211.303,19.927Z"/>
<path
 fill="none" stroke="#000000" stroke-width="1.44" stroke-linecap="butt" stroke-linejoin="miter"
 d="M 214.221 26.7955 L 214.221 30.6835 "/>
<path
 fill="none" stroke="#5c5c5c" stroke-width="0.5" stroke-linecap="butt" stroke-linejoin="miter"
 d=""/>
<path
 fill="none" stroke="#5c5c5c" stroke-width="0.5" stroke-linecap="butt" stroke-linejoin="miter"
 d=""/>
<path
 fill="none" stroke="#5c5c5c" stroke-width="0.5" stroke-linecap="butt" stroke-linejoin="miter"
 d=""/>
<path
 fill="none" stroke="#5c5c5c" stroke-width="0.5" stroke-linecap="butt" stroke-linejoin="miter"
 d=""/>
<path
 fill="none" stroke="#5c5c5c" stroke-width="0.5" stroke-linecap="butt" stroke-linejoin="miter"
 d=""/>
<path
 fill="none" stroke="#5c5c5c" stroke-width="0.5" stroke-linecap="butt" stroke-linejoin="miter"
 d=""/>
<path
 fill="none" stroke="#5c5c5c" stroke-width="0.5" stroke-linecap="butt" stroke-linejoin="miter"
 d=""/>
<path
 fill="none" stroke="#5c5c5c" stroke-width="0.5" stroke-linecap="butt" stroke-linejoin="miter"
 d=""/>
<path
 fill="none" stroke="#5c5c5c" stroke-width="0.5" stroke-linecap="butt" stroke-linejoin="miter"
 d=""/>
<path
 fill="none" stroke="#5c5c5c" stroke-width="0.5" stroke-linecap="butt" stroke-linejoin="miter"
 d=""/>
<path
 fill="none" stroke="#5c5c5c" stroke-width="0.5" stroke-linecap="butt" stroke-linejoin="miter"
 d=""/>
<path
 fill="none" stroke="#5c5c5c" stroke-width="0.5" stroke-linecap="butt" stroke-linejoin="miter"
 d=""/>
<path
 fill="none" stroke="#5c5c5c" stroke-width="0.5" stroke-linecap="butt" stroke-linejoin="miter"
 d=""/>
<path
 fill="none" stroke="#5c5c5c" stroke-width="0.5" stroke-linecap="butt" stroke-linejoin="miter"
 d=""/>
<path
 fill="none" stroke="#5c5c5c" stroke-width="0.5" stroke-linecap="butt" stroke-linejoin="miter"
 d=""/>
<path
 fill="none" stroke="#5c5c5c" stroke-width="0.5" stroke-linecap="butt" stroke-linejoin="miter"
 d=""/>
<path
 fill="none" stroke="#5c5c5c" stroke-width="0.5" stroke-linecap="butt" stroke-linejoin="miter"
 d=""/>
<path
 fill="none" stroke="#5c5c5c" stroke-width="0.5" stroke-linecap="butt" stroke-linejoin="miter"
 d=""/>
<path
 fill="none" stroke="#5c5c5c" stroke-width="0.5" stroke-linecap="butt" stroke-linejoin="miter"
 d=""/>
<path
 fill="none" stroke="#5c5c5c" stroke-width="0.5" stroke-linecap="butt" stroke-linejoin="miter"
 d=""/>
<path
 fill="none" stroke="#5c5c5c" stroke-width="0.5" stroke-linecap="butt" stroke-linejoin="miter"
 d=""/>
<path
 fill="none" stroke="#5c5c5c" stroke-width="0.5" stroke-linecap="butt" stroke-linejoin="miter"
 d=""/>
<path
 fill="none" stroke="#5c5c5c" stroke-width="0.5" stroke-linecap="butt" stroke-linejoin="miter"
 d=""/>
<path
 fill="none" stroke="#5c5c5c" stroke-width="0.5" stroke-linecap="butt" stroke-linejoin="miter"
 d=""/>
<path
 fill="none" stroke="#5c5c5c" stroke-width="0.5" stroke-linecap="butt" stroke-linejoin="miter"
 d=""/>
<path
 fill="none" stroke="#5c5c5c" stroke-width="0.5" stroke-linecap="butt" stroke-linejoin="miter"
 d=""/>
<path
 fill="none" stroke="#5c5c5c" stroke-width="0.5" stroke-linecap="butt" stroke-linejoin="miter"
 d=""/>
<path
 fill="none" stroke="#5c5c5c" stroke-width="0.5" stroke-linecap="butt" stroke-linejoin="miter"
 d=""/>
<path
 fill="none" stroke="#5c5c5c" stroke-width="0.5" stroke-linecap="butt" stroke-linejoin="miter"
 d=""/>
<path
 fill="none" stroke="#5c5c5c" stroke-width="0.5" stroke-linecap="butt" stroke-linejoin="miter"
 d=""/>
<path
 fill="none" stroke="#5c5c5c" stroke-width="0.5" stroke-linecap="butt" stroke-linejoin="miter"
 d=""/>
<path
 fill="none" stroke="#5c5c5c" stroke-width="0.5" stroke-linecap="butt" stroke-linejoin="miter"
 d=""/>
<path
 fill="none" stroke="#5c5c5c" stroke-width="0.5" stroke-linecap="butt" stroke-linejoin="miter"
 d=""/>
<path
 fill="none" stroke="#5c5c5c" stroke-width="0.5" stroke-linecap="butt" stroke-linejoin="miter"
 d=""/>
<path
 fill="none" stroke="#5c5c5c" stroke-width="0.5" stroke-linecap="butt" stroke-linejoin="miter"
 d=""/>
<path
 fill="none" stroke="#5c5c5c" stroke-width="0.5" stroke-linecap="butt" stroke-linejoin="miter"
 d=""/>
<path
 fill="none" stroke="#5c5c5c" stroke-width="0.5" stroke-linecap="butt" stroke-linejoin="miter"
 d=""/>
<path
 fill="none" stroke="#5c5c5c" stroke-width="0.5" stroke-linecap="butt" stroke-linejoin="miter"
 d=""/>
<path
 fill="#d90000" stroke="#000000" stroke-width="0.72" stroke-linecap="butt" stroke-linejoin="miter"
 d="M 184.218 55.572 A 2.5575,2.5575 0 0,1 179.103,55.572A 2.5575,2.5575 0 0,1 184.218,55.572Z"/>
<path
 fill="#40c040" stroke="#000000" stroke-width="0.72" stroke-linecap="butt" stroke-linejoin="miter"
 d="M 184.218 48.012 A 2.5575,2.5575 0 0,1 179.103,48.012A 2.5575,2.5575 0 0,1 184.218,48.012Z"/>
<path
 fill="#4040c0" stroke="#000000" stroke-width="0.72" stroke-linecap="butt" stroke-linejoin="miter"
 d="M 181.39 41.0009 A 2.5575,2.5575 0 0,1 176.275,41.0009A 2.5575,2.5575 0 0,1 181.39,41.0009Z"/>
<path
 fill="#4040c0" stroke="#000000" stroke-width="0.72" stroke-linecap="butt" stroke-linejoin="miter"
 d="M 179.969 33.5756 A 2.5575,2.5575 0 0,1 174.854,33.5756A 2.5575,2.5575 0 0,1 179.969,33.5756Z"/>
<path
 fill="#4040c0" stroke="#000000" stroke-width="0.72" stroke-linecap="butt" stroke-linejoin="miter"
 d="M 182.167 26.3422 A 2.5575,2.5575 0 0,1 177.052,26.3422A 2.5575,2.5575 0 0,1 182.167,26.3422Z"/>
<path
 fill="#4040c0" stroke="#000000" stroke-width="0.72" stroke-linecap="butt" stroke-linejoin="miter"
 d="M 187.479 20.9628 A 2.5575,2.5575 0 0,1 182.364,20.9628A 2.5575,2.5575 0 0,1 187.479,20.9628Z"/>
<path
 fill="#4040c0" stroke="#000000" stroke-width="0.72" stroke-linecap="butt" stroke-linejoin="miter"
 d="M 194.684 18.6735 A 2.5575,2.5575 0 0,1 189.569,18.6735A 2.5575,2.5575 0 0,1 194.684,18.6735Z"/>
<path
 fill="#4040c0" stroke="#000000" stroke-width="0.72" stroke-linecap="butt" stroke-linejoin="miter"
 d="M 202.126 20.0004 A 2.5575,2.5575 0 0,1 197.011,20.0004A 2.5575,2.5575 0 0,1 202.126,20.0004Z"/>
<path
 fill="#40c040" stroke="#000000" stroke-width="0.72" stroke-linecap="butt" stroke-linejoin="miter"
 d="M 209.218 22.6195 A 2.5575,2.5575 0 0,1 204.103,22.6195A 2.5575,2.5575 0 0,1 209.218,22.6195Z"/>
<path
 fill="#d90000" stroke="#000000" stroke-width="0.72" stroke-linecap="butt" stroke-linejoin="miter"
 d="M 216.778 22.6195 A 2.5575,2.5575 0 0,1 211.663,22.6195A 2.5575,2.5575 0 0,1 216.778,22.6195Z"/>
<path
 fill="#d90000" stroke="#000000" stroke-width="0.72" stroke-linecap="butt" stroke-linejoin="miter"
 d="M 224.329 22.2541 A 2.5575,2.5575 0 0,1 219.214,22.2541A 2.5575,2.5575 0 0,1 224.329,22.2541Z"/>
<path
 fill="#d90000" stroke="#000000" stroke-width="0.72" stroke-linecap="butt" stroke-linejoin="miter"
 d="M 228.214 28.7395 A 2.5575,2.5575 0 0,1 223.099,28.7395A 2.5575,2.5575 0 0,1 228.214,28.7395Z"/>
<path
 fill="#d90000" stroke="#000000" stroke-width="0.72" stroke-linecap="butt" stroke-linejoin="miter"
 d="M 224.329 35.2249 A 2.5575,2.5575 0 0,1 219.214,35.2249A 2.5575,2.5575 0 0,1 224.329,35.2249Z"/>
<path
 fill="#d90000" stroke="#000000" stroke-width="0.72" stroke-linecap="butt" stroke-linejoin="miter"
 d="M 216.778 34.8595 A 2.5575,2.5575 0 0,1 211.663,34.8595A 2.5575,2.5575 0 0,1 216.778,34.8595Z"/>
<path
 fill="#40c040" stroke="#000000" stroke-width="0.72" stroke-linecap="butt" stroke-linejoin="miter"
 d="M 209.218 34.8595 A 2.5575,2.5575 0 0,1 204.103,34.8595A 2.5575,2.5575 0 0,1 209.218,34.8595Z"/>
<path
 fill="#4040c0" stroke="#000000" stroke-width="0.72" stroke-linecap="butt" stroke-linejoin="miter"
 d="M 209.303 42.419 A 2.5575,2.5575 0 0,1 204.188,42.419A 2.5575,2.5575 0 0,1 209.303,42.419Z"/>
<path
 fill="#4040c0" stroke="#000000" stroke-width="0.72" stroke-linecap="butt" stroke-linejoin="miter"
 d="M 204.015 47.8217 A 2.5575,2.5575 0 0,1 198.9,47.8217A 2.5575,2.5575 0 0,1 204.015,47.8217Z"/>
<path
 fill="#40c040" stroke="#000000" stroke-width="0.72" stroke-linecap="butt" stroke-linejoin="miter"
 d="M 196.458 48.012 A 2.5575,2.5575 0 0,1 191.343,48.012A 2.5575,2.5575 0 0,1 196.458,48.012Z"/>
<path
 fill="#d90000" stroke="#000000" stroke-width="0.72" stroke-linecap="butt" stroke-linejoin="miter"
 d="M 196.458 55.572 A 2.5575,2.5575 0 0,1 191.343,55.572A 2.5575,2.5575 0 0,1 196.458,55.572Z"/>
<path
 fill="none" stroke="#000000" stroke-width="0.72" stroke-linecap="butt" stroke-linejoin="miter"
 d="M 181.66 59.1359 A 1.78191,1.78191 0 0,1 179.878,60.9178L 176.314 60.9178 "/>
<text x="169.212" y="63.6103" id="text1006">
  <tspan x="169.212" y="63.6103" fill="#000000"  font-variant="normal" font-weight="normal" font-style="normal" font-family="Bitstream Vera Sans" font-size="7.5" id="tspan1007">5&apos;</tspan>
</text>
<text x="0" y="88.7777" id="text1008">
  <tspan x="0" y="88.7777" fill="#000000"  font-variant="normal" font-weight="normal" font-style="normal" font-family="Bitstream Vera Sans" font-size="12" id="tspan1009">solver-formulation1-1 solver=2</tspan>
</text>
<path
 fill="none" stroke="#000000" stroke-width="1.5" stroke-linecap="butt" stroke-linejoin="miter"
 d="M 49.6599 115.946 A 17.2396,17.2396 0 0,1 15.1806,115.946A 17.2396,17.2396 0 0,1 49.6599,115.946"/>
<path
 fill="none" stroke="#000000" stroke-width="1.5" stroke-linecap="butt" stroke-linejoin="miter"
 d="M 45.5762 120.255 A 8.84725,8.84725 0 0,1 27.8817,120.255A 8.84725,8.84725 0 0,1 45.5762,120.255"/>
<path
 fill="none" stroke="#000000" stroke-width="0.72" stroke-linecap="butt" stroke-linejoin="miter"
 d="M 46.6216 114.379 A 15.7683,15.7683 0 0,1 15.0851,114.379A 15.7683,15.7683 0 0,1 46.6216,114.379"/>
<path
 fill="#d7efc5" stroke="none"
 d="M 17.0307 132.716 L 17.0307,132.716L 35.1057,132.716L 35.1057,138.101L 17.0307,138.101Z"/>
<path
 fill="none" stroke="#000000" stroke-width="1.44" stroke-linecap="butt" stroke-linejoin="miter"
 d="M 24.1242 135.408 L 28.0122 135.408 "/>
<path
 fill="#d7efc5" stroke="none"
 d="M 17.0307 125.156 L 17.0307,125.156L 35.1057,125.156L 35.1057,130.541L 17.0307,130.541Z"/>
<path
 fill="none" stroke="#000000" stroke-width="1.44" stroke-linecap="butt" stroke-linejoin="miter"
 d="M 24.1242 127.848 L 28.0122 127.848 "/>
<path
 fill="#d7efc5" stroke="none"
 d="M 47.2396 100.782 L 47.2396,100.782L 47.2396,118.407L 41.4046,118.407L 41.4046,100.782Z"/>
<path
 fill="none" stroke="#000000" stroke-width="1.44" stroke-linecap="butt" stroke-linejoin="miter"
 d="M 44.3221 107.65 L 44.3221 111.538 "/>
<path
 fill="#d7efc5" stroke="none"
 d="M 54.7996 100.782 L 54.7996,100.782L 54.7996,118.407L 48.9646,118.407L 48.9646,100.782Z"/>
<path
 fill="none" stroke="#000000" stroke-width="1.44" stroke-linecap="butt" stroke-linejoin="miter"
 d="M 51.8821 107.65 L 51.8821 111.538 "/>
<path
 fill="none" stroke="#5c5c5c" stroke-width="0.5" stroke-linecap="butt" stroke-linejoin="miter"
 d=""/>
<path
 fill="none" stroke="#5c5c5c" stroke-width="0.5" stroke-linecap="butt" stroke-linejoin="miter"
 d=""/>
<path
 fill="none" stroke="#5c5c5c" stroke-width="0.5" stroke-linecap="butt" stroke-linejoin="miter"
 d=""/>
<path
 fill="none" stroke="#5c5c5c" stroke-width="0.5" stroke-linecap="butt" stroke-linejoin="miter"
 d=""/>
<path
 fill="none" stroke="#5c5c5c" stroke-width="0.5" stroke-linecap="butt" stroke-linejoin="miter"
 d=""/>
<path
 fill="none" stroke="#5c5c5c" stroke-width="0.5" stroke-linecap="butt" stroke-linejoin="miter"
 d=""/>
<path
 fill="none" stroke="#5c5c5c" stroke-width="0.5" stroke-linecap="butt" stroke-linejoin="miter"
 d=""/>
<path
 fill="none" stroke="#5c5c5c" stroke-width="0.5" stroke-linecap="butt" stroke-linejoin="miter"
 d=""/>
<path
 fill="none" stroke="#5c5c5c" stroke-width="0.5" stroke-linecap="butt" stroke-linejoin="miter"
 d=""/>
<path
 fill="none" stroke="#5c5c5c" stroke-width="0.5" stroke-linecap="butt" stroke-linejoin="miter"
 d=""/>
<path
 fill="none" stroke="#5c5c5c" stroke-width="0.5" stroke-linecap="butt" stroke-linejoin="miter"
 d=""/>
<path
 fill="none" stroke="#5c5c5c" stroke-width="0.5" stroke-linecap="butt" stroke-linejoin="miter"
 d=""/>
<path
 fill="none" stroke="#5c5c5c" stroke-width="0.5" stroke-linecap="butt" stroke-linejoin="miter"
 d=""/>
<path
 fill="none" stroke="#5c5c5c" stroke-width="0.5" stroke-linecap="butt" stroke-linejoin="miter"
 d=""/>
<path
 fill="none" stroke="#5c5c5c" stroke-width="0.5" stroke-linecap="butt" stroke-linejoin="miter"
 d=""/>
<path
 fill="none" stroke="#5c5c5c" stroke-width="0.5" stroke-linecap="butt" stroke-linejoin="miter"
 d=""/>
<path
 fill="none" stroke="#5c5c5c" stroke-width="0.5" stroke-linecap="butt" stroke-linejoin="miter"
 d=""/>
<path
 fill="none" stroke="#5c5c5c" stroke-width="0.5" stroke-linecap="butt" stroke-linejoin="miter"
 d=""/>
<path
 fill="none" stroke="#5c5c5c" stroke-width="0.5" stroke-linecap="butt" stroke-linejoin="miter"
 d=""/>
<path
 fill="none" stroke="#5c5c5c" stroke-width="0.5" stroke-linecap="butt" stroke-linejoin="miter"
 d=""/>
<path
 fill="none" stroke="#5c5c5c" stroke-width="0.5" stroke-linecap="butt" stroke-linejoin="miter"
 d=""/>
<path
 fill="none" stroke="#5c5c5c" stroke-width="0.5" stroke-linecap="butt" stroke-linejoin="miter"
 d=""/>
<path
 fill="none" stroke="#5c5c5c" stroke-width="0.5" stroke-linecap="butt" stroke-linejoin="miter"
 d=""/>
<path
 fill="none" stroke="#5c5c5c" stroke-width="0.5" stroke-linecap="butt" stroke-linejoin="miter"
 d=""/>
<path
 fill="none" stroke="#5c5c5c" stroke-width="0.5" stroke-linecap="butt" stroke-linejoin="miter"
 d=""/>
<path
 fill="none" stroke="#5c5c5c" stroke-width="0.5" stroke-linecap="butt" stroke-linejoin="miter"
 d=""/>
<path
 fill="none" stroke="#5c5c5c" stroke-width="0.5" stroke-linecap="butt" stroke-linejoin="miter"
 d=""/>
<path
 fill="none" stroke="#5c5c5c" stroke-width="0.5" stroke-linecap="butt" stroke-linejoin="miter"
 d=""/>
<path
 fill="none" stroke="#5c5c5c" stroke-width="0.5" stroke-linecap="butt" stroke-linejoin="miter"
 d=""/>
<path
 fill="none" stroke="#5c5c5c" stroke-width="0.5" stroke-linecap="butt" stroke-linejoin="miter"
 d=""/>
<path
 fill="none" stroke="#5c5c5c" stroke-width="0.5" stroke-linecap="butt" stroke-linejoin="miter"
 d=""/>
<path
 fill="none" stroke="#5c5c5c" stroke-width="0.5" stroke-linecap="butt" stroke-linejoin="miter"
 d=""/>
<path
 fill="none" stroke="#5c5c5c" stroke-width="0.5" stroke-linecap="butt" stroke-linejoin="miter"
 d=""/>
<path
 fill="none" stroke="#5c5c5c" stroke-width="0.5" stroke-linecap="butt" stroke-linejoin="miter"
 d=""/>
<path
 fill="none" stroke="#5c5c5c" stroke-width="0.5" stroke-linecap="butt" stroke-linejoin="miter"
 d=""/>
<path
 fill="none" stroke="#5c5c5c" stroke-width="0.5" stroke-linecap="butt" stroke-linejoin="miter"
 d=""/>
<path
 fill="none" stroke="#5c5c5c" stroke-width="0.5" stroke-linecap="butt" stroke-linejoin="miter"
 d=""/>
<path
 fill="none" stroke="#5c5c5c" stroke-width="0.5" stroke-linecap="butt" stroke-linejoin="miter"
 d=""/>
<path
 fill="#d90000" stroke="#000000" stroke-width="0.72" stroke-linecap="butt" stroke-linejoin="miter"
 d="M 22.5057 135.408 A 2.5575,2.5575 0 0,1 17.3907,135.408A 2.5575,2.5575 0 0,1 22.5057,135.408Z"/>
<path
 fill="#40c040" stroke="#000000" stroke-width="0.72" stroke-linecap="butt" stroke-linejoin="miter"
 d="M 22.5057 127.848 A 2.5575,2.5575 0 0,1 17.3907,127.848A 2.5575,2.5575 0 0,1 22.5057,127.848Z"/>
<path
 fill="#4040c0" stroke="#000000" stroke-width="0.72" stroke-linecap="butt" stroke-linejoin="miter"
 d="M 18.6127 121.368 A 2.5575,2.5575 0 0,1 13.4977,121.368A 2.5575,2.5575 0 0,1 18.6127,121.368Z"/>
<path
 fill="#4040c0" stroke="#000000" stroke-width="0.72" stroke-linecap="butt" stroke-linejoin="miter"
 d="M 17.8667 113.844 A 2.5575,2.5575 0 0,1 12.7517,113.844A 2.5575,2.5575 0 0,1 17.8667,113.844Z"/>
<path
 fill="#4040c0" stroke="#000000" stroke-width="0.72" stroke-linecap="butt" stroke-linejoin="miter"
 d="M 20.4113 106.726 A 2.5575,2.5575 0 0,1 15.2963,106.726A 2.5575,2.5575 0 0,1 20.4113,106.726Z"/>
<path
 fill="#4040c0" stroke="#000000" stroke-width="0.72" stroke-linecap="butt" stroke-linejoin="miter"
 d="M 25.757 101.38 A 2.5575,2.5575 0 0,1 20.642,101.38A 2.5575,2.5575 0 0,1 25.757,101.38Z"/>
<path
 fill="#4040c0" stroke="#000000" stroke-width="0.72" stroke-linecap="butt" stroke-linejoin="miter"
 d="M 32.8759 98.8352 A 2.5575,2.5575 0 0,1 27.7609,98.8352A 2.5575,2.5575 0 0,1 32.8759,98.8352Z"/>
<path
 fill="#4040c0" stroke="#000000" stroke-width="0.72" stroke-linecap="butt" stroke-linejoin="miter"
 d="M 40.399 99.5812 A 2.5575,2.5575 0 0,1 35.284,99.5812A 2.5575,2.5575 0 0,1 40.399,99.5812Z"/>
<path
 fill="#40c040" stroke="#000000" stroke-width="0.72" stroke-linecap="butt" stroke-linejoin="miter"
 d="M 46.8796 103.474 A 2.5575,2.5575 0 0,1 41.7646,103.474A 2.5575,2.5575 0 0,1 46.8796,103.474Z"/>
<path
 fill="#d90000" stroke="#000000" stroke-width="0.72" stroke-linecap="butt" stroke-linejoin="miter"
 d="M 54.4396 103.474 A 2.5575,2.5575 0 0,1 49.3246,103.474A 2.5575,2.5575 0 0,1 54.4396,103.474Z"/>
<path
 fill="#d90000" stroke="#000000" stroke-width="0.72" stroke-linecap="butt" stroke-linejoin="miter"
 d="M 61.9908 103.109 A 2.5575,2.5575 0 0,1 56.8758,103.109A 2.5575,2.5575 0 0,1 61.9908,103.109Z"/>
<path
 fill="#d90000" stroke="#000000" stroke-width="0.72" stroke-linecap="butt" stroke-linejoin="miter"
 d="M 65.8758 109.594 A 2.5575,2.5575 0 0,1 60.7608,109.594A 2.5575,2.5575 0 0,1 65.8758,109.594Z"/>
<path
 fill="#d90000" stroke="#000000" stroke-width="0.72" stroke-linecap="butt" stroke-linejoin="miter"
 d="M 61.9908 116.08 A 2.5575,2.5575 0 0,1 56.8758,116.08A 2.5575,2.5575 0 0,1 61.9908,116.08Z"/>
<path
 fill="#d90000" stroke="#000000" stroke-width="0.72" stroke-linecap="butt" stroke-linejoin="miter"
 d="M 54.4396 115.714 A 2.5575,2.5575 0 0,1 49.3246,115.714A 2.5575,2.5575 0 0,1 54.4396,115.714Z"/>
<path
 fill="#40c040" stroke="#000000" stroke-width="0.72" stroke-linecap="butt" stroke-linejoin="miter"
 d="M 46.8796 115.714 A 2.5575,2.5575 0 0,1 41.7646,115.714A 2.5575,2.5575 0 0,1 46.8796,115.714Z"/>
<path
 fill="#4040c0" stroke="#000000" stroke-width="0.72" stroke-linecap="butt" stroke-linejoin="miter"
 d="M 47.6155 123.238 A 2.5575,2.5575 0 0,1 42.5005,123.238A 2.5575,2.5575 0 0,1 47.6155,123.238Z"/>
<path
 fill="#4040c0" stroke="#000000" stroke-width="0.72" stroke-linecap="butt" stroke-linejoin="miter"
 d="M 42.2698 128.584 A 2.5575,2.5575 0 0,1 37.1548,128.584A 2.5575,2.5575 0 0,1 42.2698,128.584Z"/>
<path
 fill="#40c040" stroke="#000000" stroke-width="0.72" stroke-linecap="butt" stroke-linejoin="miter"
 d="M 34.7457 127.848 A 2.5575,2.5575 0 0,1 29.6307,127.848A 2.5575,2.5575 0 0,1 34.7457,127.848Z"/>
<path
 fill="#d90000" stroke="#000000" stroke-width="0.72" stroke-linecap="butt" stroke-linejoin="miter"
 d="M 34.7457 135.408 A 2.5575,2.5575 0 0,1 29.6307,135.408A 2.5575,2.5575 0 0,1 34.7457,135.408Z"/>
<path
 fill="none" stroke="#000000" stroke-width="0.72" stroke-linecap="butt" stroke-linejoin="miter"
 d="M 19.9482 138.972 A 1.78191,1.78191 0 0,1 18.1663,140.754L 14.6025 140.754 "/>
<text x="7.5" y="143.446" id="text1010">
  <tspan x="7.5" y="143.446" fill="#000000"  font-variant="normal" font-weight="normal" font-style="normal" font-family="Bitstream Vera Sans" font-size="7.5" id="tspan1011">5&apos;</tspan>
</text>
</svg>
