<svg
   xmlns:svg="http://www.w3.org/2000/svg"
   xmlns="http://www.w3.org/2000/svg"
   xmlns:xlink="http://www.w3.org/1999/xlink"
   version="1.0"
   width="145.906"
   height="173.737"
   id="svg2403"
   xml:space="preserve">
<text x="0" y="8.616" id="text1000">
  <tspan x="0" y="8.616" fill="#000000"  font-variant="normal" font-weight="normal" font-style="normal" font-family="Bitstream Vera Sans" font-size="12" id="tspan1001">RF00005_tRNA_tRNA</tspan>
</text>
<path
 fill="#d7efc5" stroke="none"
 d="M 65.8832 155.507 L 65.8832,155.507L 83.9582,155.507L 83.9582,160.892L 65.8832,160.892Z"/>
<path
 fill="none" stroke="#000000" stroke-width="1.44" stroke-linecap="butt" stroke-linejoin="miter"
 d="M 72.9767 158.199 L 76.8647 158.199 "/>
<path
 fill="#d7efc5" stroke="none"
 d="M 65.8832 147.947 L 65.8832,147.947L 83.9582,147.947L 83.9582,153.332L 65.8832,153.332Z"/>
<path
 fill="none" stroke="#000000" stroke-width="1.44" stroke-linecap="butt" stroke-linejoin="miter"
 d="M 72.9767 150.639 L 76.8647 150.639 "/>
<path
 fill="#d7efc5" stroke="none"
 d="M 65.8832 140.387 L 65.8832,140.387L 83.9582,140.387L 83.9582,145.772L 65.8832,145.772Z"/>
<path
 fill="none" stroke="#000000" stroke-width="1.44" stroke-linecap="butt" stroke-linejoin="miter"
 d="M 72.9767 143.079 L 76.8647 143.079 "/>
<path
 fill="#d7efc5" stroke="none"
 d="M 65.8832 132.827 L 65.8832,132.827L 83.9582,132.827L 83.9582,138.212L 65.8832,138.212Z"/>
<path
 fill="none" stroke="#000000" stroke-width="1.44" stroke-linecap="butt" stroke-linejoin="miter"
 d="M 72.9767 135.519 L 76.8647 135.519 "/>
<path
 fill="#d7efc5" stroke="none"
 d="M 65.8832 125.267 L 65.8832,125.267L 83.9582,125.267L 83.9582,130.652L 65.8832,130.652Z"/>
<path
 fill="none" stroke="#000000" stroke-width="1.44" stroke-linecap="butt" stroke-linejoin="miter"
 d="M 72.9767 127.959 L 76.8647 127.959 "/>
<path
 fill="#d7efc5" stroke="none"
 d="M 65.8832 117.707 L 65.8832,117.707L 83.9582,117.707L 83.9582,123.092L 65.8832,123.092Z"/>
<path
 fill="none" stroke="#000000" stroke-width="1.44" stroke-linecap="butt" stroke-linejoin="miter"
 d="M 72.9767 120.399 L 76.8647 120.399 "/>
<path
 fill="#d7efc5" stroke="none"
 d="M 65.8832 110.147 L 65.8832,110.147L 83.9582,110.147L 83.9582,115.532L 65.8832,115.532Z"/>
<path
 fill="none" stroke="#000000" stroke-width="1.44" stroke-linecap="butt" stroke-linejoin="miter"
 d="M 72.9767 112.839 L 76.8647 112.839 "/>
<path
 fill="#d7efc5" stroke="none"
 d="M 50.7484 99.4582 L 50.7484,99.4582L 52.37,81.4054L 58.6381,81.9684L 57.0165,100.021Z"/>
<path
 fill="none" stroke="#000000" stroke-width="1.44" stroke-linecap="butt" stroke-linejoin="miter"
 d="M 54.5193 92.6495 L 54.8672 88.7771 "/>
<path
 fill="#d7efc5" stroke="none"
 d="M 43.2187 98.7818 L 43.2187,98.7818L 44.8403,80.7291L 51.1084,81.2921L 49.4869,99.3448Z"/>
<path
 fill="none" stroke="#000000" stroke-width="1.44" stroke-linecap="butt" stroke-linejoin="miter"
 d="M 46.9897 91.9732 L 47.3375 88.1007 "/>
<path
 fill="#d7efc5" stroke="none"
 d="M 35.689 98.1055 L 35.689,98.1055L 37.3106,80.0527L 43.5787,80.6158L 41.9572,98.6685Z"/>
<path
 fill="none" stroke="#000000" stroke-width="1.44" stroke-linecap="butt" stroke-linejoin="miter"
 d="M 39.46 91.2968 L 39.8078 87.4244 "/>
<path
 fill="#d7efc5" stroke="none"
 d="M 28.1594 97.4291 L 28.1594,97.4291L 29.7809,79.3764L 36.049,79.9394L 34.4275,97.9922Z"/>
<path
 fill="none" stroke="#000000" stroke-width="1.44" stroke-linecap="butt" stroke-linejoin="miter"
 d="M 31.9303 90.6205 L 32.2781 86.7481 "/>
<path
 fill="#d7efc5" stroke="none"
 d="M 61.4202 71.1296 L 61.4202,71.1296L 80.0583,67.7541L 81.1828,73.9631L 62.5447,77.3386Z"/>
<path
 fill="none" stroke="#000000" stroke-width="1.44" stroke-linecap="butt" stroke-linejoin="miter"
 d="M 69.3886 72.8928 L 73.2144 72.1999 "/>
<path
 fill="#d7efc5" stroke="none"
 d="M 60.073 63.6906 L 60.073,63.6906L 78.711,60.3151L 79.8355,66.5241L 61.1975,69.8996Z"/>
<path
 fill="none" stroke="#000000" stroke-width="1.44" stroke-linecap="butt" stroke-linejoin="miter"
 d="M 68.0414 65.4538 L 71.8671 64.761 "/>
<path
 fill="#d7efc5" stroke="none"
 d="M 58.7257 56.2517 L 58.7257,56.2517L 77.3638,52.8762L 78.4883,59.0852L 59.8502,62.4607Z"/>
<path
 fill="none" stroke="#000000" stroke-width="1.44" stroke-linecap="butt" stroke-linejoin="miter"
 d="M 66.6941 58.0148 L 70.5199 57.322 "/>
<path
 fill="#d7efc5" stroke="none"
 d="M 57.3784 48.8127 L 57.3784,48.8127L 76.0165,45.4372L 77.141,51.6462L 58.5029,55.0217Z"/>
<path
 fill="none" stroke="#000000" stroke-width="1.44" stroke-linecap="butt" stroke-linejoin="miter"
 d="M 65.3468 50.5759 L 69.1726 49.883 "/>
<path
 fill="#d7efc5" stroke="none"
 d="M 56.0312 41.3737 L 56.0312,41.3737L 74.6692,37.9982L 75.7937,44.2072L 57.1557,47.5827Z"/>
<path
 fill="none" stroke="#000000" stroke-width="1.44" stroke-linecap="butt" stroke-linejoin="miter"
 d="M 63.9996 43.1369 L 67.8253 42.444 "/>
<path
 fill="#d7efc5" stroke="none"
 d="M 99.7955 98.1912 L 99.7955,98.1912L 88.0455,114.406L 82.936,110.703L 94.686,94.4886Z"/>
<path
 fill="none" stroke="#000000" stroke-width="1.44" stroke-linecap="butt" stroke-linejoin="miter"
 d="M 92.5065 102.873 L 90.225 106.021 "/>
<path
 fill="#d7efc5" stroke="none"
 d="M 105.917 102.627 L 105.917,102.627L 94.1671,118.842L 89.0577,115.139L 100.808,98.9247Z"/>
<path
 fill="none" stroke="#000000" stroke-width="1.44" stroke-linecap="butt" stroke-linejoin="miter"
 d="M 98.6281 107.309 L 96.3467 110.457 "/>
<path
 fill="#d7efc5" stroke="none"
 d="M 112.039 107.063 L 112.039,107.063L 100.289,123.278L 95.1793,119.575L 106.929,103.361Z"/>
<path
 fill="none" stroke="#000000" stroke-width="1.44" stroke-linecap="butt" stroke-linejoin="miter"
 d="M 104.75 111.745 L 102.468 114.894 "/>
<path
 fill="#d7efc5" stroke="none"
 d="M 118.16 111.499 L 118.16,111.499L 106.41,127.714L 101.301,124.011L 113.051,107.797Z"/>
<path
 fill="none" stroke="#000000" stroke-width="1.44" stroke-linecap="butt" stroke-linejoin="miter"
 d="M 110.871 116.181 L 108.59 119.33 "/>
<path
 fill="#d7efc5" stroke="none"
 d="M 124.282 115.936 L 124.282,115.936L 112.532,132.15L 107.423,128.448L 119.173,112.233Z"/>
<path
 fill="none" stroke="#000000" stroke-width="1.44" stroke-linecap="butt" stroke-linejoin="miter"
 d="M 116.993 120.617 L 114.712 123.766 "/>
<path
 fill="none" stroke="#5c5c5c" stroke-width="0.5" stroke-linecap="butt" stroke-linejoin="miter"
 d=""/>
<path
 fill="none" stroke="#5c5c5c" stroke-width="0.5" stroke-linecap="butt" stroke-linejoin="miter"
 d=""/>
<path
 fill="none" stroke="#5c5c5c" stroke-width="0.5" stroke-linecap="butt" stroke-linejoin="miter"
 d=""/>
<path
 fill="none" stroke="#5c5c5c" stroke-width="0.5" stroke-linecap="butt" stroke-linejoin="miter"
 d=""/>
<path
 fill="none" stroke="#5c5c5c" stroke-width="0.5" stroke-linecap="butt" stroke-linejoin="miter"
 d=""/>
<path
 fill="none" stroke="#5c5c5c" stroke-width="0.5" stroke-linecap="butt" stroke-linejoin="miter"
 d=""/>
<path
 fill="none" stroke="#5c5c5c" stroke-width="0.5" stroke-linecap="butt" stroke-linejoin="miter"
 d=""/>
<path
 fill="none" stroke="#5c5c5c" stroke-width="0.5" stroke-linecap="butt" stroke-linejoin="miter"
 d=""/>
<path
 fill="none" stroke="#5c5c5c" stroke-width="0.5" stroke-linecap="butt" stroke-linejoin="miter"
 d=""/>
<path
 fill="none" stroke="#5c5c5c" stroke-width="0.5" stroke-linecap="butt" stroke-linejoin="miter"
 d=""/>
<path
 fill="none" stroke="#5c5c5c" stroke-width="0.5" stroke-linecap="butt" stroke-linejoin="miter"
 d=""/>
<path
 fill="none" stroke="#5c5c5c" stroke-width="0.5" stroke-linecap="butt" stroke-linejoin="miter"
 d=""/>
<path
 fill="none" stroke="#5c5c5c" stroke-width="0.5" stroke-linecap="butt" stroke-linejoin="miter"
 d=""/>
<path
 fill="none" stroke="#5c5c5c" stroke-width="0.5" stroke-linecap="butt" stroke-linejoin="miter"
 d=""/>
<path
 fill="none" stroke="#5c5c5c" stroke-width="0.5" stroke-linecap="butt" stroke-linejoin="miter"
 d=""/>
<path
 fill="none" stroke="#5c5c5c" stroke-width="0.5" stroke-linecap="butt" stroke-linejoin="miter"
 d=""/>
<path
 fill="none" stroke="#5c5c5c" stroke-width="0.5" stroke-linecap="butt" stroke-linejoin="miter"
 d=""/>
<path
 fill="none" stroke="#5c5c5c" stroke-width="0.5" stroke-linecap="butt" stroke-linejoin="miter"
 d=""/>
<path
 fill="none" stroke="#5c5c5c" stroke-width="0.5" stroke-linecap="butt" stroke-linejoin="miter"
 d=""/>
<path
 fill="none" stroke="#5c5c5c" stroke-width="0.5" stroke-linecap="butt" stroke-linejoin="miter"
 d=""/>
<path
 fill="none" stroke="#5c5c5c" stroke-width="0.5" stroke-linecap="butt" stroke-linejoin="miter"
 d=""/>
<path
 fill="none" stroke="#5c5c5c" stroke-width="0.5" stroke-linecap="butt" stroke-linejoin="miter"
 d=""/>
<path
 fill="none" stroke="#5c5c5c" stroke-width="0.5" stroke-linecap="butt" stroke-linejoin="miter"
 d=""/>
<path
 fill="none" stroke="#5c5c5c" stroke-width="0.5" stroke-linecap="butt" stroke-linejoin="miter"
 d=""/>
<path
 fill="none" stroke="#5c5c5c" stroke-width="0.5" stroke-linecap="butt" stroke-linejoin="miter"
 d=""/>
<path
 fill="none" stroke="#5c5c5c" stroke-width="0.5" stroke-linecap="butt" stroke-linejoin="miter"
 d=""/>
<path
 fill="none" stroke="#5c5c5c" stroke-width="0.5" stroke-linecap="butt" stroke-linejoin="miter"
 d=""/>
<path
 fill="none" stroke="#5c5c5c" stroke-width="0.5" stroke-linecap="butt" stroke-linejoin="miter"
 d=""/>
<path
 fill="none" stroke="#5c5c5c" stroke-width="0.5" stroke-linecap="butt" stroke-linejoin="miter"
 d=""/>
<path
 fill="none" stroke="#5c5c5c" stroke-width="0.5" stroke-linecap="butt" stroke-linejoin="miter"
 d=""/>
<path
 fill="none" stroke="#5c5c5c" stroke-width="0.5" stroke-linecap="butt" stroke-linejoin="miter"
 d=""/>
<path
 fill="none" stroke="#5c5c5c" stroke-width="0.5" stroke-linecap="butt" stroke-linejoin="miter"
 d=""/>
<path
 fill="none" stroke="#5c5c5c" stroke-width="0.5" stroke-linecap="butt" stroke-linejoin="miter"
 d=""/>
<path
 fill="none" stroke="#5c5c5c" stroke-width="0.5" stroke-linecap="butt" stroke-linejoin="miter"
 d=""/>
<path
 fill="none" stroke="#5c5c5c" stroke-width="0.5" stroke-linecap="butt" stroke-linejoin="miter"
 d=""/>
<path
 fill="none" stroke="#5c5c5c" stroke-width="0.5" stroke-linecap="butt" stroke-linejoin="miter"
 d=""/>
<path
 fill="none" stroke="#5c5c5c" stroke-width="0.5" stroke-linecap="butt" stroke-linejoin="miter"
 d=""/>
<path
 fill="none" stroke="#5c5c5c" stroke-width="0.5" stroke-linecap="butt" stroke-linejoin="miter"
 d=""/>
<path
 fill="none" stroke="#5c5c5c" stroke-width="0.5" stroke-linecap="butt" stroke-linejoin="miter"
 d=""/>
<path
 fill="none" stroke="#5c5c5c" stroke-width="0.5" stroke-linecap="butt" stroke-linejoin="miter"
 d=""/>
<path
 fill="none" stroke="#5c5c5c" stroke-width="0.5" stroke-linecap="butt" stroke-linejoin="miter"
 d=""/>
<path
 fill="none" stroke="#5c5c5c" stroke-width="0.5" stroke-linecap="butt" stroke-linejoin="miter"
 d=""/>
<path
 fill="none" stroke="#5c5c5c" stroke-width="0.5" stroke-linecap="butt" stroke-linejoin="miter"
 d=""/>
<path
 fill="none" stroke="#5c5c5c" stroke-width="0.5" stroke-linecap="butt" stroke-linejoin="miter"
 d=""/>
<path
 fill="none" stroke="#5c5c5c" stroke-width="0.5" stroke-linecap="butt" stroke-linejoin="miter"
 d=""/>
<path
 fill="none" stroke="#5c5c5c" stroke-width="0.5" stroke-linecap="butt" stroke-linejoin="miter"
 d=""/>
<path
 fill="none" stroke="#5c5c5c" stroke-width="0.5" stroke-linecap="butt" stroke-linejoin="miter"
 d=""/>
<path
 fill="none" stroke="#5c5c5c" stroke-width="0.5" stroke-linecap="butt" stroke-linejoin="miter"
 d=""/>
<path
 fill="none" stroke="#5c5c5c" stroke-width="0.5" stroke-linecap="butt" stroke-linejoin="miter"
 d=""/>
<path
 fill="none" stroke="#5c5c5c" stroke-width="0.5" stroke-linecap="butt" stroke-linejoin="miter"
 d=""/>
<path
 fill="none" stroke="#5c5c5c" stroke-width="0.5" stroke-linecap="butt" stroke-linejoin="miter"
 d=""/>
<path
 fill="none" stroke="#5c5c5c" stroke-width="0.5" stroke-linecap="butt" stroke-linejoin="miter"
 d=""/>
<path
 fill="none" stroke="#5c5c5c" stroke-width="0.5" stroke-linecap="butt" stroke-linejoin="miter"
 d=""/>
<path
 fill="none" stroke="#5c5c5c" stroke-width="0.5" stroke-linecap="butt" stroke-linejoin="miter"
 d=""/>
<path
 fill="none" stroke="#5c5c5c" stroke-width="0.5" stroke-linecap="butt" stroke-linejoin="miter"
 d=""/>
<path
 fill="none" stroke="#5c5c5c" stroke-width="0.5" stroke-linecap="butt" stroke-linejoin="miter"
 d=""/>
<path
 fill="none" stroke="#5c5c5c" stroke-width="0.5" stroke-linecap="butt" stroke-linejoin="miter"
 d=""/>
<path
 fill="none" stroke="#5c5c5c" stroke-width="0.5" stroke-linecap="butt" stroke-linejoin="miter"
 d=""/>
<path
 fill="none" stroke="#5c5c5c" stroke-width="0.5" stroke-linecap="butt" stroke-linejoin="miter"
 d=""/>
<path
 fill="none" stroke="#5c5c5c" stroke-width="0.5" stroke-linecap="butt" stroke-linejoin="miter"
 d=""/>
<path
 fill="none" stroke="#5c5c5c" stroke-width="0.5" stroke-linecap="butt" stroke-linejoin="miter"
 d=""/>
<path
 fill="none" stroke="#5c5c5c" stroke-width="0.5" stroke-linecap="butt" stroke-linejoin="miter"
 d=""/>
<path
 fill="none" stroke="#5c5c5c" stroke-width="0.5" stroke-linecap="butt" stroke-linejoin="miter"
 d=""/>
<path
 fill="none" stroke="#5c5c5c" stroke-width="0.5" stroke-linecap="butt" stroke-linejoin="miter"
 d=""/>
<path
 fill="none" stroke="#5c5c5c" stroke-width="0.5" stroke-linecap="butt" stroke-linejoin="miter"
 d=""/>
<path
 fill="none" stroke="#5c5c5c" stroke-width="0.5" stroke-linecap="butt" stroke-linejoin="miter"
 d=""/>
<path
 fill="none" stroke="#5c5c5c" stroke-width="0.5" stroke-linecap="butt" stroke-linejoin="miter"
 d=""/>
<path
 fill="none" stroke="#5c5c5c" stroke-width="0.5" stroke-linecap="butt" stroke-linejoin="miter"
 d=""/>
<path
 fill="none" stroke="#5c5c5c" stroke-width="0.5" stroke-linecap="butt" stroke-linejoin="miter"
 d=""/>
<path
 fill="none" stroke="#5c5c5c" stroke-width="0.5" stroke-linecap="butt" stroke-linejoin="miter"
 d=""/>
<path
 fill="none" stroke="#5c5c5c" stroke-width="0.5" stroke-linecap="butt" stroke-linejoin="miter"
 d=""/>
<path
 fill="none" stroke="#5c5c5c" stroke-width="0.5" stroke-linecap="butt" stroke-linejoin="miter"
 d=""/>
<path
 fill="none" stroke="#5c5c5c" stroke-width="0.5" stroke-linecap="butt" stroke-linejoin="miter"
 d=""/>
<path
 fill="none" stroke="#5c5c5c" stroke-width="0.5" stroke-linecap="butt" stroke-linejoin="miter"
 d=""/>
<path
 fill="none" stroke="#5c5c5c" stroke-width="0.5" stroke-linecap="butt" stroke-linejoin="miter"
 d=""/>
<path
 fill="none" stroke="#5c5c5c" stroke-width="0.5" stroke-linecap="butt" stroke-linejoin="miter"
 d=""/>
<path
 fill="none" stroke="#5c5c5c" stroke-width="0.5" stroke-linecap="butt" stroke-linejoin="miter"
 d=""/>
<path
 fill="none" stroke="#5c5c5c" stroke-width="0.5" stroke-linecap="butt" stroke-linejoin="miter"
 d=""/>
<path
 fill="none" stroke="#5c5c5c" stroke-width="0.5" stroke-linecap="butt" stroke-linejoin="miter"
 d=""/>
<path
 fill="none" stroke="#5c5c5c" stroke-width="0.5" stroke-linecap="butt" stroke-linejoin="miter"
 d=""/>
<path
 fill="none" stroke="#5c5c5c" stroke-width="0.5" stroke-linecap="butt" stroke-linejoin="miter"
 d=""/>
<path
 fill="none" stroke="#5c5c5c" stroke-width="0.5" stroke-linecap="butt" stroke-linejoin="miter"
 d=""/>
<path
 fill="none" stroke="#5c5c5c" stroke-width="0.5" stroke-linecap="butt" stroke-linejoin="miter"
 d=""/>
<path
 fill="none" stroke="#5c5c5c" stroke-width="0.5" stroke-linecap="butt" stroke-linejoin="miter"
 d=""/>
<path
 fill="none" stroke="#5c5c5c" stroke-width="0.5" stroke-linecap="butt" stroke-linejoin="miter"
 d=""/>
<path
 fill="none" stroke="#5c5c5c" stroke-width="0.5" stroke-linecap="butt" stroke-linejoin="miter"
 d=""/>
<path
 fill="none" stroke="#5c5c5c" stroke-width="0.5" stroke-linecap="butt" stroke-linejoin="miter"
 d=""/>
<path
 fill="none" stroke="#5c5c5c" stroke-width="0.5" stroke-linecap="butt" stroke-linejoin="miter"
 d=""/>
<path
 fill="none" stroke="#5c5c5c" stroke-width="0.5" stroke-linecap="butt" stroke-linejoin="miter"
 d=""/>
<path
 fill="none" stroke="#5c5c5c" stroke-width="0.5" stroke-linecap="butt" stroke-linejoin="miter"
 d=""/>
<path
 fill="none" stroke="#5c5c5c" stroke-width="0.5" stroke-linecap="butt" stroke-linejoin="miter"
 d=""/>
<path
 fill="none" stroke="#5c5c5c" stroke-width="0.5" stroke-linecap="butt" stroke-linejoin="miter"
 d=""/>
<path
 fill="none" stroke="#5c5c5c" stroke-width="0.5" stroke-linecap="butt" stroke-linejoin="miter"
 d=""/>
<path
 fill="none" stroke="#5c5c5c" stroke-width="0.5" stroke-linecap="butt" stroke-linejoin="miter"
 d=""/>
<path
 fill="none" stroke="#5c5c5c" stroke-width="0.5" stroke-linecap="butt" stroke-linejoin="miter"
 d=""/>
<path
 fill="none" stroke="#5c5c5c" stroke-width="0.5" stroke-linecap="butt" stroke-linejoin="miter"
 d=""/>
<path
 fill="none" stroke="#5c5c5c" stroke-width="0.5" stroke-linecap="butt" stroke-linejoin="miter"
 d=""/>
<path
 fill="none" stroke="#5c5c5c" stroke-width="0.5" stroke-linecap="butt" stroke-linejoin="miter"
 d=""/>
<path
 fill="none" stroke="#5c5c5c" stroke-width="0.5" stroke-linecap="butt" stroke-linejoin="miter"
 d=""/>
<path
 fill="none" stroke="#5c5c5c" stroke-width="0.5" stroke-linecap="butt" stroke-linejoin="miter"
 d=""/>
<path
 fill="none" stroke="#5c5c5c" stroke-width="0.5" stroke-linecap="butt" stroke-linejoin="miter"
 d=""/>
<path
 fill="none" stroke="#5c5c5c" stroke-width="0.5" stroke-linecap="butt" stroke-linejoin="miter"
 d=""/>
<path
 fill="none" stroke="#5c5c5c" stroke-width="0.5" stroke-linecap="butt" stroke-linejoin="miter"
 d=""/>
<path
 fill="none" stroke="#5c5c5c" stroke-width="0.5" stroke-linecap="butt" stroke-linejoin="miter"
 d=""/>
<path
 fill="none" stroke="#5c5c5c" stroke-width="0.5" stroke-linecap="butt" stroke-linejoin="miter"
 d=""/>
<path
 fill="none" stroke="#5c5c5c" stroke-width="0.5" stroke-linecap="butt" stroke-linejoin="miter"
 d=""/>
<path
 fill="none" stroke="#5c5c5c" stroke-width="0.5" stroke-linecap="butt" stroke-linejoin="miter"
 d=""/>
<path
 fill="none" stroke="#5c5c5c" stroke-width="0.5" stroke-linecap="butt" stroke-linejoin="miter"
 d=""/>
<path
 fill="none" stroke="#5c5c5c" stroke-width="0.5" stroke-linecap="butt" stroke-linejoin="miter"
 d=""/>
<path
 fill="none" stroke="#5c5c5c" stroke-width="0.5" stroke-linecap="butt" stroke-linejoin="miter"
 d=""/>
<path
 fill="none" stroke="#5c5c5c" stroke-width="0.5" stroke-linecap="butt" stroke-linejoin="miter"
 d=""/>
<path
 fill="none" stroke="#5c5c5c" stroke-width="0.5" stroke-linecap="butt" stroke-linejoin="miter"
 d=""/>
<path
 fill="none" stroke="#5c5c5c" stroke-width="0.5" stroke-linecap="butt" stroke-linejoin="miter"
 d=""/>
<path
 fill="none" stroke="#5c5c5c" stroke-width="0.5" stroke-linecap="butt" stroke-linejoin="miter"
 d=""/>
<path
 fill="none" stroke="#5c5c5c" stroke-width="0.5" stroke-linecap="butt" stroke-linejoin="miter"
 d=""/>
<path
 fill="none" stroke="#5c5c5c" stroke-width="0.5" stroke-linecap="butt" stroke-linejoin="miter"
 d=""/>
<path
 fill="none" stroke="#5c5c5c" stroke-width="0.5" stroke-linecap="butt" stroke-linejoin="miter"
 d=""/>
<path
 fill="none" stroke="#5c5c5c" stroke-width="0.5" stroke-linecap="butt" stroke-linejoin="miter"
 d=""/>
<path
 fill="none" stroke="#5c5c5c" stroke-width="0.5" stroke-linecap="butt" stroke-linejoin="miter"
 d=""/>
<path
 fill="none" stroke="#5c5c5c" stroke-width="0.5" stroke-linecap="butt" stroke-linejoin="miter"
 d=""/>
<path
 fill="none" stroke="#5c5c5c" stroke-width="0.5" stroke-linecap="butt" stroke-linejoin="miter"
 d=""/>
<path
 fill="none" stroke="#5c5c5c" stroke-width="0.5" stroke-linecap="butt" stroke-linejoin="miter"
 d=""/>
<path
 fill="none" stroke="#5c5c5c" stroke-width="0.5" stroke-linecap="butt" stroke-linejoin="miter"
 d=""/>
<path
 fill="none" stroke="#5c5c5c" stroke-width="0.5" stroke-linecap="butt" stroke-linejoin="miter"
 d=""/>
<path
 fill="none" stroke="#5c5c5c" stroke-width="0.5" stroke-linecap="butt" stroke-linejoin="miter"
 d=""/>
<path
 fill="none" stroke="#5c5c5c" stroke-width="0.5" stroke-linecap="butt" stroke-linejoin="miter"
 d=""/>
<path
 fill="none" stroke="#5c5c5c" stroke-width="0.5" stroke-linecap="butt" stroke-linejoin="miter"
 d=""/>
<path
 fill="none" stroke="#5c5c5c" stroke-width="0.5" stroke-linecap="butt" stroke-linejoin="miter"
 d=""/>
<path
 fill="none" stroke="#5c5c5c" stroke-width="0.5" stroke-linecap="butt" stroke-linejoin="miter"
 d=""/>
<path
 fill="none" stroke="#5c5c5c" stroke-width="0.5" stroke-linecap="butt" stroke-linejoin="miter"
 d=""/>
<path
 fill="none" stroke="#5c5c5c" stroke-width="0.5" stroke-linecap="butt" stroke-linejoin="miter"
 d=""/>
<path
 fill="none" stroke="#5c5c5c" stroke-width="0.5" stroke-linecap="butt" stroke-linejoin="miter"
 d=""/>
<path
 fill="none" stroke="#5c5c5c" stroke-width="0.5" stroke-linecap="butt" stroke-linejoin="miter"
 d=""/>
<path
 fill="none" stroke="#5c5c5c" stroke-width="0.5" stroke-linecap="butt" stroke-linejoin="miter"
 d=""/>
<path
 fill="none" stroke="#5c5c5c" stroke-width="0.5" stroke-linecap="butt" stroke-linejoin="miter"
 d=""/>
<path
 fill="none" stroke="#5c5c5c" stroke-width="0.5" stroke-linecap="butt" stroke-linejoin="miter"
 d=""/>
<path
 fill="none" stroke="#5c5c5c" stroke-width="0.5" stroke-linecap="butt" stroke-linejoin="miter"
 d=""/>
<path
 fill="none" stroke="#5c5c5c" stroke-width="0.5" stroke-linecap="butt" stroke-linejoin="miter"
 d=""/>
<path
 fill="none" stroke="#5c5c5c" stroke-width="0.5" stroke-linecap="butt" stroke-linejoin="miter"
 d=""/>
<path
 fill="none" stroke="#5c5c5c" stroke-width="0.5" stroke-linecap="butt" stroke-linejoin="miter"
 d=""/>
<path
 fill="none" stroke="#5c5c5c" stroke-width="0.5" stroke-linecap="butt" stroke-linejoin="miter"
 d=""/>
<path
 fill="none" stroke="#5c5c5c" stroke-width="0.5" stroke-linecap="butt" stroke-linejoin="miter"
 d=""/>
<text x="66.0932" y="160.892" id="text1002">
  <tspan x="66.0932" y="160.892" fill="#807b88"  font-variant="normal" font-weight="normal" font-style="normal" font-family="Bitstream Vera Sans" font-size="7.5" id="tspan1003">R</tspan>
</text>
<path
 fill="#d90000" stroke="#000000" stroke-width="0.72" stroke-linecap="butt" stroke-linejoin="miter"
 d="M 71.3582 150.639 A 2.5575,2.5575 0 0,1 66.2432,150.639A 2.5575,2.5575 0 0,1 71.3582,150.639Z"/>
<path
 fill="#d90000" stroke="#000000" stroke-width="0.72" stroke-linecap="butt" stroke-linejoin="miter"
 d="M 71.3582 143.079 A 2.5575,2.5575 0 0,1 66.2432,143.079A 2.5575,2.5575 0 0,1 71.3582,143.079Z"/>
<path
 fill="#d90000" stroke="#000000" stroke-width="0.72" stroke-linecap="butt" stroke-linejoin="miter"
 d="M 71.3582 135.519 A 2.5575,2.5575 0 0,1 66.2432,135.519A 2.5575,2.5575 0 0,1 71.3582,135.519Z"/>
<path
 fill="#d90000" stroke="#000000" stroke-width="0.72" stroke-linecap="butt" stroke-linejoin="miter"
 d="M 71.3582 127.959 A 2.5575,2.5575 0 0,1 66.2432,127.959A 2.5575,2.5575 0 0,1 71.3582,127.959Z"/>
<path
 fill="#d90000" stroke="#000000" stroke-width="0.72" stroke-linecap="butt" stroke-linejoin="miter"
 d="M 71.3582 120.399 A 2.5575,2.5575 0 0,1 66.2432,120.399A 2.5575,2.5575 0 0,1 71.3582,120.399Z"/>
<text x="66.0932" y="115.532" id="text1004">
  <tspan x="66.0932" y="115.532" fill="#807b88"  font-variant="normal" font-weight="normal" font-style="normal" font-family="Bitstream Vera Sans" font-size="7.5" id="tspan1005">R</tspan>
</text>
<text x="59.3594" y="112.095" id="text1006">
  <tspan x="59.3594" y="112.095" fill="#000000"  font-variant="normal" font-weight="normal" font-style="normal" font-family="Bitstream Vera Sans" font-size="7.5" id="tspan1007">U</tspan>
</text>
<text x="54.2584" y="106.516" id="text1008">
  <tspan x="54.2584" y="106.516" fill="#000000"  font-variant="normal" font-weight="normal" font-style="normal" font-family="Bitstream Vera Sans" font-size="7.5" id="tspan1009">R</tspan>
</text>
<text x="51.2282" y="99.5013" id="text1010">
  <tspan x="51.2282" y="99.5013" fill="#807b88"  font-variant="normal" font-weight="normal" font-style="normal" font-family="Bitstream Vera Sans" font-size="7.5" id="tspan1011">G</tspan>
</text>
<text x="44.1148" y="98.8249" id="text1012">
  <tspan x="44.1148" y="98.8249" fill="#000000"  font-variant="normal" font-weight="normal" font-style="normal" font-family="Bitstream Vera Sans" font-size="7.5" id="tspan1013">Y</tspan>
</text>
<path
 fill="#d90000" stroke="#000000" stroke-width="0.72" stroke-linecap="butt" stroke-linejoin="miter"
 d="M 41.6439 95.4561 A 2.5575,2.5575 0 0,1 36.5289,95.4561A 2.5575,2.5575 0 0,1 41.6439,95.4561Z"/>
<path
 fill="#d90000" stroke="#000000" stroke-width="0.72" stroke-linecap="butt" stroke-linejoin="miter"
 d="M 34.1142 94.7797 A 2.5575,2.5575 0 0,1 28.9992,94.7797A 2.5575,2.5575 0 0,1 34.1142,94.7797Z"/>
<text x="22.8736" y="101.824" id="text1014">
  <tspan x="22.8736" y="101.824" fill="#000000"  font-variant="normal" font-weight="normal" font-style="normal" font-family="Bitstream Vera Sans" font-size="7.5" id="tspan1015">A</tspan>
</text>
<text x="15.1123" y="101.55" id="text1016">
  <tspan x="15.1123" y="101.55" fill="#807b88"  font-variant="normal" font-weight="normal" font-style="normal" font-family="Bitstream Vera Sans" font-size="7.5" id="tspan1017">R</tspan>
</text>
<path
 fill="#807b88" stroke="#000000" stroke-width="0.72" stroke-linecap="butt" stroke-linejoin="miter"
 d="M 14.5271 94.0692 A 2.5575,2.5575 0 0,1 9.41206,94.0692A 2.5575,2.5575 0 0,1 14.5271,94.0692Z"/>
<text x="7.5" y="89.4099" id="text1018">
  <tspan x="7.5" y="89.4099" fill="#807b88"  font-variant="normal" font-weight="normal" font-style="normal" font-family="Bitstream Vera Sans" font-size="7.5" id="tspan1019">R</tspan>
</text>
<text x="10.544" y="82.4898" id="text1020">
  <tspan x="10.544" y="82.4898" fill="#807b88"  font-variant="normal" font-weight="normal" font-style="normal" font-family="Bitstream Vera Sans" font-size="7.5" id="tspan1021">R</tspan>
</text>
<path
 fill="#807b88" stroke="#000000" stroke-width="0.72" stroke-linecap="butt" stroke-linejoin="miter"
 d="M 22.419 76.1282 A 2.5575,2.5575 0 0,1 17.304,76.1282A 2.5575,2.5575 0 0,1 22.419,76.1282Z"/>
<text x="24.8431" y="79.8975" id="text1022">
  <tspan x="24.8431" y="79.8975" fill="#807b88"  font-variant="normal" font-weight="normal" font-style="normal" font-family="Bitstream Vera Sans" font-size="7.5" id="tspan1023">A</tspan>
</text>
<text x="29.9442" y="85.2813" id="text1024">
  <tspan x="29.9442" y="85.2813" fill="#807b88"  font-variant="normal" font-weight="normal" font-style="normal" font-family="Bitstream Vera Sans" font-size="7.5" id="tspan1025">R</tspan>
</text>
<path
 fill="#d90000" stroke="#000000" stroke-width="0.72" stroke-linecap="butt" stroke-linejoin="miter"
 d="M 42.7389 83.2651 A 2.5575,2.5575 0 0,1 37.6239,83.2651A 2.5575,2.5575 0 0,1 42.7389,83.2651Z"/>
<text x="45.0036" y="86.634" id="text1026">
  <tspan x="45.0036" y="86.634" fill="#000000"  font-variant="normal" font-weight="normal" font-style="normal" font-family="Bitstream Vera Sans" font-size="7.5" id="tspan1027">R</tspan>
</text>
<text x="52.7395" y="87.3103" id="text1028">
  <tspan x="52.7395" y="87.3103" fill="#000000"  font-variant="normal" font-weight="normal" font-style="normal" font-family="Bitstream Vera Sans" font-size="7.5" id="tspan1029">Y</tspan>
</text>
<text x="56.5583" y="80.9109" id="text1030">
  <tspan x="56.5583" y="80.9109" fill="#807b88"  font-variant="normal" font-weight="normal" font-style="normal" font-family="Bitstream Vera Sans" font-size="7.5" id="tspan1031">R</tspan>
</text>
<path
 fill="#d90000" stroke="#000000" stroke-width="0.72" stroke-linecap="butt" stroke-linejoin="miter"
 d="M 67.837 73.637 A 2.5575,2.5575 0 0,1 62.722,73.637A 2.5575,2.5575 0 0,1 67.837,73.637Z"/>
<path
 fill="#d90000" stroke="#000000" stroke-width="0.72" stroke-linecap="butt" stroke-linejoin="miter"
 d="M 66.4897 66.198 A 2.5575,2.5575 0 0,1 61.3747,66.198A 2.5575,2.5575 0 0,1 66.4897,66.198Z"/>
<path
 fill="#d90000" stroke="#000000" stroke-width="0.72" stroke-linecap="butt" stroke-linejoin="miter"
 d="M 65.1425 58.759 A 2.5575,2.5575 0 0,1 60.0275,58.759A 2.5575,2.5575 0 0,1 65.1425,58.759Z"/>
<text x="58.5302" y="54.0126" id="text1032">
  <tspan x="58.5302" y="54.0126" fill="#807b88"  font-variant="normal" font-weight="normal" font-style="normal" font-family="Bitstream Vera Sans" font-size="7.5" id="tspan1033">R</tspan>
</text>
<path
 fill="#d90000" stroke="#000000" stroke-width="0.72" stroke-linecap="butt" stroke-linejoin="miter"
 d="M 62.4479 43.8811 A 2.5575,2.5575 0 0,1 57.3329,43.8811A 2.5575,2.5575 0 0,1 62.4479,43.8811Z"/>
<text x="51.5521" y="41.7692" id="text1034">
  <tspan x="51.5521" y="41.7692" fill="#000000"  font-variant="normal" font-weight="normal" font-style="normal" font-family="Bitstream Vera Sans" font-size="7.5" id="tspan1035">Y</tspan>
</text>
<text x="49.604" y="34.4126" id="text1036">
  <tspan x="49.604" y="34.4126" fill="#d90000"  font-variant="normal" font-weight="normal" font-style="normal" font-family="Bitstream Vera Sans" font-size="7.5" id="tspan1037">U</tspan>
</text>
<path
 fill="#d90000" stroke="#000000" stroke-width="0.72" stroke-linecap="butt" stroke-linejoin="miter"
 d="M 57.9321 24.8084 A 2.5575,2.5575 0 0,1 52.8171,24.8084A 2.5575,2.5575 0 0,1 57.9321,24.8084Z"/>
<path
 fill="#d90000" stroke="#000000" stroke-width="0.72" stroke-linecap="butt" stroke-linejoin="miter"
 d="M 64.5521 21.1575 A 2.5575,2.5575 0 0,1 59.4371,21.1575A 2.5575,2.5575 0 0,1 64.5521,21.1575Z"/>
<path
 fill="#d90000" stroke="#000000" stroke-width="0.72" stroke-linecap="butt" stroke-linejoin="miter"
 d="M 72.032 22.2548 A 2.5575,2.5575 0 0,1 66.917,22.2548A 2.5575,2.5575 0 0,1 72.032,22.2548Z"/>
<text x="72.2658" y="30.3457" id="text1038">
  <tspan x="72.2658" y="30.3457" fill="#807b88"  font-variant="normal" font-weight="normal" font-style="normal" font-family="Bitstream Vera Sans" font-size="7.5" id="tspan1039">A</tspan>
</text>
<path
 fill="#d90000" stroke="#000000" stroke-width="0.72" stroke-linecap="butt" stroke-linejoin="miter"
 d="M 78.2734 35.1534 A 2.5575,2.5575 0 0,1 73.1584,35.1534A 2.5575,2.5575 0 0,1 78.2734,35.1534Z"/>
<path
 fill="#d90000" stroke="#000000" stroke-width="0.72" stroke-linecap="butt" stroke-linejoin="miter"
 d="M 74.492 41.6998 A 2.5575,2.5575 0 0,1 69.377,41.6998A 2.5575,2.5575 0 0,1 74.492,41.6998Z"/>
<text x="70.7805" y="51.8313" id="text1040">
  <tspan x="70.7805" y="51.8313" fill="#807b88"  font-variant="normal" font-weight="normal" font-style="normal" font-family="Bitstream Vera Sans" font-size="7.5" id="tspan1041">Y</tspan>
</text>
<path
 fill="#d90000" stroke="#000000" stroke-width="0.72" stroke-linecap="butt" stroke-linejoin="miter"
 d="M 77.1865 56.5778 A 2.5575,2.5575 0 0,1 72.0715,56.5778A 2.5575,2.5575 0 0,1 77.1865,56.5778Z"/>
<path
 fill="#d90000" stroke="#000000" stroke-width="0.72" stroke-linecap="butt" stroke-linejoin="miter"
 d="M 78.5338 64.0168 A 2.5575,2.5575 0 0,1 73.4188,64.0168A 2.5575,2.5575 0 0,1 78.5338,64.0168Z"/>
<path
 fill="#d90000" stroke="#000000" stroke-width="0.72" stroke-linecap="butt" stroke-linejoin="miter"
 d="M 79.881 71.4557 A 2.5575,2.5575 0 0,1 74.766,71.4557A 2.5575,2.5575 0 0,1 79.881,71.4557Z"/>
<path
 fill="#d90000" stroke="#000000" stroke-width="0.72" stroke-linecap="butt" stroke-linejoin="miter"
 d="M 87.1195 73.637 A 2.5575,2.5575 0 0,1 82.0045,73.637A 2.5575,2.5575 0 0,1 87.1195,73.637Z"/>
<path
 fill="#807b88" stroke="#000000" stroke-width="0.72" stroke-linecap="butt" stroke-linejoin="miter"
 d="M 93.1332 78.2184 A 2.5575,2.5575 0 0,1 88.0182,78.2184A 2.5575,2.5575 0 0,1 93.1332,78.2184Z"/>
<text x="91.8932" y="87.3104" id="text1042">
  <tspan x="91.8932" y="87.3104" fill="#807b88"  font-variant="normal" font-weight="normal" font-style="normal" font-family="Bitstream Vera Sans" font-size="7.5" id="tspan1043">R</tspan>
</text>
<text x="93.6244" y="94.715" id="text1044">
  <tspan x="93.6244" y="94.715" fill="#000000"  font-variant="normal" font-weight="normal" font-style="normal" font-family="Bitstream Vera Sans" font-size="7.5" id="tspan1045">Y</tspan>
</text>
<text x="92.2494" y="102.184" id="text1046">
  <tspan x="92.2494" y="102.184" fill="#807b88"  font-variant="normal" font-weight="normal" font-style="normal" font-family="Bitstream Vera Sans" font-size="7.5" id="tspan1047">R</tspan>
</text>
<path
 fill="#d90000" stroke="#000000" stroke-width="0.72" stroke-linecap="butt" stroke-linejoin="miter"
 d="M 103.636 103.928 A 2.5575,2.5575 0 0,1 98.521,103.928A 2.5575,2.5575 0 0,1 103.636,103.928Z"/>
<path
 fill="#d90000" stroke="#000000" stroke-width="0.72" stroke-linecap="butt" stroke-linejoin="miter"
 d="M 109.758 108.364 A 2.5575,2.5575 0 0,1 104.643,108.364A 2.5575,2.5575 0 0,1 109.758,108.364Z"/>
<text x="110.614" y="115.492" id="text1048">
  <tspan x="110.614" y="115.492" fill="#000000"  font-variant="normal" font-weight="normal" font-style="normal" font-family="Bitstream Vera Sans" font-size="7.5" id="tspan1049">R</tspan>
</text>
<text x="116.526" y="119.928" id="text1050">
  <tspan x="116.526" y="119.928" fill="#807b88"  font-variant="normal" font-weight="normal" font-style="normal" font-family="Bitstream Vera Sans" font-size="7.5" id="tspan1051">G</tspan>
</text>
<text x="124.274" y="119.355" id="text1052">
  <tspan x="124.274" y="119.355" fill="#807b88"  font-variant="normal" font-weight="normal" font-style="normal" font-family="Bitstream Vera Sans" font-size="7.5" id="tspan1053">U</tspan>
</text>
<text x="130.624" y="123.459" id="text1054">
  <tspan x="130.624" y="123.459" fill="#807b88"  font-variant="normal" font-weight="normal" font-style="normal" font-family="Bitstream Vera Sans" font-size="7.5" id="tspan1055">U</tspan>
</text>
<text x="133.404" y="130.567" id="text1056">
  <tspan x="133.404" y="130.567" fill="#807b88"  font-variant="normal" font-weight="normal" font-style="normal" font-family="Bitstream Vera Sans" font-size="7.5" id="tspan1057">Y</tspan>
</text>
<text x="130.947" y="137.784" id="text1058">
  <tspan x="130.947" y="137.784" fill="#000000"  font-variant="normal" font-weight="normal" font-style="normal" font-family="Bitstream Vera Sans" font-size="7.5" id="tspan1059">R</tspan>
</text>
<text x="124.995" y="142.17" id="text1060">
  <tspan x="124.995" y="142.17" fill="#000000"  font-variant="normal" font-weight="normal" font-style="normal" font-family="Bitstream Vera Sans" font-size="7.5" id="tspan1061">A</tspan>
</text>
<path
 fill="#000000" stroke="#000000" stroke-width="0.72" stroke-linecap="butt" stroke-linejoin="miter"
 d="M 122.498 139.245 A 2.5575,2.5575 0 0,1 117.383,139.245A 2.5575,2.5575 0 0,1 122.498,139.245Z"/>
<text x="111.562" y="137.182" id="text1062">
  <tspan x="111.562" y="137.182" fill="#807b88"  font-variant="normal" font-weight="normal" font-style="normal" font-family="Bitstream Vera Sans" font-size="7.5" id="tspan1063">Y</tspan>
</text>
<text x="109.554" y="129.84" id="text1064">
  <tspan x="109.554" y="129.84" fill="#807b88"  font-variant="normal" font-weight="normal" font-style="normal" font-family="Bitstream Vera Sans" font-size="7.5" id="tspan1065">C</tspan>
</text>
<text x="103.638" y="125.404" id="text1066">
  <tspan x="103.638" y="125.404" fill="#000000"  font-variant="normal" font-weight="normal" font-style="normal" font-family="Bitstream Vera Sans" font-size="7.5" id="tspan1067">Y</tspan>
</text>
<path
 fill="#d90000" stroke="#000000" stroke-width="0.72" stroke-linecap="butt" stroke-linejoin="miter"
 d="M 102.575 118.275 A 2.5575,2.5575 0 0,1 97.4604,118.275A 2.5575,2.5575 0 0,1 102.575,118.275Z"/>
<path
 fill="#d90000" stroke="#000000" stroke-width="0.72" stroke-linecap="butt" stroke-linejoin="miter"
 d="M 96.4538 113.839 A 2.5575,2.5575 0 0,1 91.3388,113.839A 2.5575,2.5575 0 0,1 96.4538,113.839Z"/>
<text x="85.2734" y="112.095" id="text1068">
  <tspan x="85.2734" y="112.095" fill="#807b88"  font-variant="normal" font-weight="normal" font-style="normal" font-family="Bitstream Vera Sans" font-size="7.5" id="tspan1069">Y</tspan>
</text>
<text x="78.5395" y="115.532" id="text1070">
  <tspan x="78.5395" y="115.532" fill="#807b88"  font-variant="normal" font-weight="normal" font-style="normal" font-family="Bitstream Vera Sans" font-size="7.5" id="tspan1071">Y</tspan>
</text>
<path
 fill="#d90000" stroke="#000000" stroke-width="0.72" stroke-linecap="butt" stroke-linejoin="miter"
 d="M 83.5982 120.399 A 2.5575,2.5575 0 0,1 78.4832,120.399A 2.5575,2.5575 0 0,1 83.5982,120.399Z"/>
<path
 fill="#d90000" stroke="#000000" stroke-width="0.72" stroke-linecap="butt" stroke-linejoin="miter"
 d="M 83.5982 127.959 A 2.5575,2.5575 0 0,1 78.4832,127.959A 2.5575,2.5575 0 0,1 83.5982,127.959Z"/>
<path
 fill="#d90000" stroke="#000000" stroke-width="0.72" stroke-linecap="butt" stroke-linejoin="miter"
 d="M 83.5982 135.519 A 2.5575,2.5575 0 0,1 78.4832,135.519A 2.5575,2.5575 0 0,1 83.5982,135.519Z"/>
<path
 fill="#d90000" stroke="#000000" stroke-width="0.72" stroke-linecap="butt" stroke-linejoin="miter"
 d="M 83.5982 143.079 A 2.5575,2.5575 0 0,1 78.4832,143.079A 2.5575,2.5575 0 0,1 83.5982,143.079Z"/>
<path
 fill="#d90000" stroke="#000000" stroke-width="0.72" stroke-linecap="butt" stroke-linejoin="miter"
 d="M 83.5982 150.639 A 2.5575,2.5575 0 0,1 78.4832,150.639A 2.5575,2.5575 0 0,1 83.5982,150.639Z"/>
<text x="78.5395" y="160.892" id="text1072">
  <tspan x="78.5395" y="160.892" fill="#807b88"  font-variant="normal" font-weight="normal" font-style="normal" font-family="Bitstream Vera Sans" font-size="7.5" id="tspan1073">Y</tspan>
</text>
<text x="83.679" y="166.237" id="text1074">
  <tspan x="83.679" y="166.237" fill="#807b88"  font-variant="normal" font-weight="normal" font-style="normal" font-family="Bitstream Vera Sans" font-size="7.5" id="tspan1075">R</tspan>
</text>
<path
 fill="none" stroke="#000000" stroke-width="0.72" stroke-linecap="butt" stroke-linejoin="miter"
 d="M 68.8007 161.763 A 1.78191,1.78191 0 0,1 67.0188,163.545L 63.455 163.545 "/>
<text x="56.3525" y="166.237" id="text1076">
  <tspan x="56.3525" y="166.237" fill="#000000"  font-variant="normal" font-weight="normal" font-style="normal" font-family="Bitstream Vera Sans" font-size="7.5" id="tspan1077">5&apos;</tspan>
</text>
</svg>
