<svg
   xmlns:svg="http://www.w3.org/2000/svg"
   xmlns="http://www.w3.org/2000/svg"
   xmlns:xlink="http://www.w3.org/1999/xlink"
   version="1.0"
   width="323.424"
   height="144.167"
   id="svg2403"
   xml:space="preserve">
<text x="0" y="8.616" id="text1000">
  <tspan x="0" y="8.616" fill="#000000"  font-variant="normal" font-weight="normal" font-style="normal" font-family="Bitstream Vera Sans" font-size="12" id="tspan1001">solver-formulation2-1</tspan>
</text>
<path
 fill="#d7efc5" stroke="none"
 d="M 19.882 61.931 L 19.882,61.931L 37.957,61.931L 37.957,67.316L 19.882,67.316Z"/>
<path
 fill="none" stroke="#000000" stroke-width="1.44" stroke-linecap="butt" stroke-linejoin="miter"
 d="M 26.9755 64.6235 L 30.8635 64.6235 "/>
<path
 fill="#d7efc5" stroke="none"
 d="M 19.882 54.371 L 19.882,54.371L 37.957,54.371L 37.957,59.756L 19.882,59.756Z"/>
<path
 fill="none" stroke="#000000" stroke-width="1.44" stroke-linecap="butt" stroke-linejoin="miter"
 d="M 26.9755 57.0635 L 30.8635 57.0635 "/>
<path
 fill="#d7efc5" stroke="none"
 d="M 19.882 34.9772 L 19.882,34.9772L 37.957,34.9772L 37.957,40.3622L 19.882,40.3622Z"/>
<path
 fill="none" stroke="#000000" stroke-width="1.44" stroke-linecap="butt" stroke-linejoin="miter"
 d="M 26.9755 37.6697 L 30.8635 37.6697 "/>
<path
 fill="#d7efc5" stroke="none"
 d="M 19.882 27.4172 L 19.882,27.4172L 37.957,27.4172L 37.957,32.8022L 19.882,32.8022Z"/>
<path
 fill="none" stroke="#000000" stroke-width="1.44" stroke-linecap="butt" stroke-linejoin="miter"
 d="M 26.9755 30.1097 L 30.8635 30.1097 "/>
<path
 fill="none" stroke="#5c5c5c" stroke-width="0.5" stroke-linecap="butt" stroke-linejoin="miter"
 d=""/>
<path
 fill="none" stroke="#5c5c5c" stroke-width="0.5" stroke-linecap="butt" stroke-linejoin="miter"
 d=""/>
<path
 fill="none" stroke="#5c5c5c" stroke-width="0.5" stroke-linecap="butt" stroke-linejoin="miter"
 d=""/>
<path
 fill="none" stroke="#5c5c5c" stroke-width="0.5" stroke-linecap="butt" stroke-linejoin="miter"
 d=""/>
<path
 fill="none" stroke="#5c5c5c" stroke-width="0.5" stroke-linecap="butt" stroke-linejoin="miter"
 d=""/>
<path
 fill="none" stroke="#5c5c5c" stroke-width="0.5" stroke-linecap="butt" stroke-linejoin="miter"
 d=""/>
<path
 fill="none" stroke="#5c5c5c" stroke-width="0.5" stroke-linecap="butt" stroke-linejoin="miter"
 d=""/>
<path
 fill="none" stroke="#5c5c5c" stroke-width="0.5" stroke-linecap="butt" stroke-linejoin="miter"
 d=""/>
<path
 fill="none" stroke="#5c5c5c" stroke-width="0.5" stroke-linecap="butt" stroke-linejoin="miter"
 d=""/>
<path
 fill="none" stroke="#5c5c5c" stroke-width="0.5" stroke-linecap="butt" stroke-linejoin="miter"
 d=""/>
<path
 fill="none" stroke="#5c5c5c" stroke-width="0.5" stroke-linecap="butt" stroke-linejoin="miter"
 d=""/>
<path
 fill="none" stroke="#5c5c5c" stroke-width="0.5" stroke-linecap="butt" stroke-linejoin="miter"
 d=""/>
<path
 fill="none" stroke="#5c5c5c" stroke-width="0.5" stroke-linecap="butt" stroke-linejoin="miter"
 d=""/>
<path
 fill="none" stroke="#5c5c5c" stroke-width="0.5" stroke-linecap="butt" stroke-linejoin="miter"
 d=""/>
<path
 fill="none" stroke="#5c5c5c" stroke-width="0.5" stroke-linecap="butt" stroke-linejoin="miter"
 d=""/>
<path
 fill="none" stroke="#5c5c5c" stroke-width="0.5" stroke-linecap="butt" stroke-linejoin="miter"
 d=""/>
<path
 fill="none" stroke="#5c5c5c" stroke-width="0.5" stroke-linecap="butt" stroke-linejoin="miter"
 d=""/>
<path
 fill="none" stroke="#5c5c5c" stroke-width="0.5" stroke-linecap="butt" stroke-linejoin="miter"
 d=""/>
<path
 fill="none" stroke="#5c5c5c" stroke-width="0.5" stroke-linecap="butt" stroke-linejoin="miter"
 d=""/>
<path
 fill="none" stroke="#5c5c5c" stroke-width="0.5" stroke-linecap="butt" stroke-linejoin="miter"
 d=""/>
<path
 fill="none" stroke="#5c5c5c" stroke-width="0.5" stroke-linecap="butt" stroke-linejoin="miter"
 d=""/>
<path
 fill="none" stroke="#5c5c5c" stroke-width="0.5" stroke-linecap="butt" stroke-linejoin="miter"
 d=""/>
<path
 fill="none" stroke="#5c5c5c" stroke-width="0.5" stroke-linecap="butt" stroke-linejoin="miter"
 d=""/>
<path
 fill="none" stroke="#5c5c5c" stroke-width="0.5" stroke-linecap="butt" stroke-linejoin="miter"
 d=""/>
<path
 fill="none" stroke="#5c5c5c" stroke-width="0.5" stroke-linecap="butt" stroke-linejoin="miter"
 d=""/>
<path
 fill="none" stroke="#5c5c5c" stroke-width="0.5" stroke-linecap="butt" stroke-linejoin="miter"
 d=""/>
<path
 fill="none" stroke="#5c5c5c" stroke-width="0.5" stroke-linecap="butt" stroke-linejoin="miter"
 d=""/>
<path
 fill="none" stroke="#5c5c5c" stroke-width="0.5" stroke-linecap="butt" stroke-linejoin="miter"
 d=""/>
<path
 fill="none" stroke="#5c5c5c" stroke-width="0.5" stroke-linecap="butt" stroke-linejoin="miter"
 d=""/>
<path
 fill="none" stroke="#5c5c5c" stroke-width="0.5" stroke-linecap="butt" stroke-linejoin="miter"
 d=""/>
<path
 fill="none" stroke="#5c5c5c" stroke-width="0.5" stroke-linecap="butt" stroke-linejoin="miter"
 d=""/>
<path
 fill="none" stroke="#5c5c5c" stroke-width="0.5" stroke-linecap="butt" stroke-linejoin="miter"
 d=""/>
<path
 fill="none" stroke="#5c5c5c" stroke-width="0.5" stroke-linecap="butt" stroke-linejoin="miter"
 d=""/>
<path
 fill="none" stroke="#5c5c5c" stroke-width="0.5" stroke-linecap="butt" stroke-linejoin="miter"
 d=""/>
<path
 fill="#d90000" stroke="#000000" stroke-width="0.72" stroke-linecap="butt" stroke-linejoin="miter"
 d="M 25.357 64.6235 A 2.5575,2.5575 0 0,1 20.242,64.6235A 2.5575,2.5575 0 0,1 25.357,64.6235Z"/>
<path
 fill="#40c040" stroke="#000000" stroke-width="0.72" stroke-linecap="butt" stroke-linejoin="miter"
 d="M 25.357 57.0635 A 2.5575,2.5575 0 0,1 20.242,57.0635A 2.5575,2.5575 0 0,1 25.357,57.0635Z"/>
<path
 fill="#4040c0" stroke="#000000" stroke-width="0.72" stroke-linecap="butt" stroke-linejoin="miter"
 d="M 17.8088 56.64 A 2.5575,2.5575 0 0,1 12.6938,56.64A 2.5575,2.5575 0 0,1 17.8088,56.64Z"/>
<path
 fill="#4040c0" stroke="#000000" stroke-width="0.72" stroke-linecap="butt" stroke-linejoin="miter"
 d="M 12.615 51.1466 A 2.5575,2.5575 0 0,1 7.5,51.1466A 2.5575,2.5575 0 0,1 12.615,51.1466Z"/>
<path
 fill="#4040c0" stroke="#000000" stroke-width="0.72" stroke-linecap="butt" stroke-linejoin="miter"
 d="M 12.615 43.5866 A 2.5575,2.5575 0 0,1 7.5,43.5866A 2.5575,2.5575 0 0,1 12.615,43.5866Z"/>
<path
 fill="#4040c0" stroke="#000000" stroke-width="0.72" stroke-linecap="butt" stroke-linejoin="miter"
 d="M 17.8088 38.0932 A 2.5575,2.5575 0 0,1 12.6938,38.0932A 2.5575,2.5575 0 0,1 17.8088,38.0932Z"/>
<path
 fill="#40c040" stroke="#000000" stroke-width="0.72" stroke-linecap="butt" stroke-linejoin="miter"
 d="M 25.357 37.6697 A 2.5575,2.5575 0 0,1 20.242,37.6697A 2.5575,2.5575 0 0,1 25.357,37.6697Z"/>
<path
 fill="#d90000" stroke="#000000" stroke-width="0.72" stroke-linecap="butt" stroke-linejoin="miter"
 d="M 25.357 30.1097 A 2.5575,2.5575 0 0,1 20.242,30.1097A 2.5575,2.5575 0 0,1 25.357,30.1097Z"/>
<path
 fill="#d90000" stroke="#000000" stroke-width="0.72" stroke-linecap="butt" stroke-linejoin="miter"
 d="M 24.9916 22.5585 A 2.5575,2.5575 0 0,1 19.8766,22.5585A 2.5575,2.5575 0 0,1 24.9916,22.5585Z"/>
<path
 fill="#d90000" stroke="#000000" stroke-width="0.72" stroke-linecap="butt" stroke-linejoin="miter"
 d="M 31.477 18.6735 A 2.5575,2.5575 0 0,1 26.362,18.6735A 2.5575,2.5575 0 0,1 31.477,18.6735Z"/>
<path
 fill="#d90000" stroke="#000000" stroke-width="0.72" stroke-linecap="butt" stroke-linejoin="miter"
 d="M 37.9624 22.5585 A 2.5575,2.5575 0 0,1 32.8474,22.5585A 2.5575,2.5575 0 0,1 37.9624,22.5585Z"/>
<path
 fill="#d90000" stroke="#000000" stroke-width="0.72" stroke-linecap="butt" stroke-linejoin="miter"
 d="M 37.597 30.1097 A 2.5575,2.5575 0 0,1 32.482,30.1097A 2.5575,2.5575 0 0,1 37.597,30.1097Z"/>
<path
 fill="#40c040" stroke="#000000" stroke-width="0.72" stroke-linecap="butt" stroke-linejoin="miter"
 d="M 37.597 37.6697 A 2.5575,2.5575 0 0,1 32.482,37.6697A 2.5575,2.5575 0 0,1 37.597,37.6697Z"/>
<path
 fill="#4040c0" stroke="#000000" stroke-width="0.72" stroke-linecap="butt" stroke-linejoin="miter"
 d="M 42.3027 43.5866 A 2.5575,2.5575 0 0,1 37.1877,43.5866A 2.5575,2.5575 0 0,1 42.3027,43.5866Z"/>
<path
 fill="#4040c0" stroke="#000000" stroke-width="0.72" stroke-linecap="butt" stroke-linejoin="miter"
 d="M 42.3027 51.1466 A 2.5575,2.5575 0 0,1 37.1877,51.1466A 2.5575,2.5575 0 0,1 42.3027,51.1466Z"/>
<path
 fill="#40c040" stroke="#000000" stroke-width="0.72" stroke-linecap="butt" stroke-linejoin="miter"
 d="M 37.597 57.0635 A 2.5575,2.5575 0 0,1 32.482,57.0635A 2.5575,2.5575 0 0,1 37.597,57.0635Z"/>
<path
 fill="#d90000" stroke="#000000" stroke-width="0.72" stroke-linecap="butt" stroke-linejoin="miter"
 d="M 37.597 64.6235 A 2.5575,2.5575 0 0,1 32.482,64.6235A 2.5575,2.5575 0 0,1 37.597,64.6235Z"/>
<path
 fill="none" stroke="#000000" stroke-width="0.72" stroke-linecap="butt" stroke-linejoin="miter"
 d="M 22.7995 68.1873 A 1.78191,1.78191 0 0,1 21.0176,69.9692L 17.4537 69.9692 "/>
<text x="10.3512" y="72.6617" id="text1002">
  <tspan x="10.3512" y="72.6617" fill="#000000"  font-variant="normal" font-weight="normal" font-style="normal" font-family="Bitstream Vera Sans" font-size="7.5" id="tspan1003">5&apos;</tspan>
</text>
<text x="161.712" y="8.616" id="text1004">
  <tspan x="161.712" y="8.616" fill="#000000"  font-variant="normal" font-weight="normal" font-style="normal" font-family="Bitstream Vera Sans" font-size="12" id="tspan1005">solver-formulation2-1 solver=1</tspan>
</text>
<path
 fill="none" stroke="#000000" stroke-width="0.72" stroke-linecap="butt" stroke-linejoin="miter"
 d="M 208.323 31.8221 A 12.944,12.944 0 0,1 182.435,31.8221A 12.944,12.944 0 0,1 208.323,31.8221"/>
<path
 fill="#d7efc5" stroke="none"
 d="M 178.743 45.1964 L 178.743,45.1964L 196.818,45.1964L 196.818,50.5814L 178.743,50.5814Z"/>
<path
 fill="none" stroke="#000000" stroke-width="1.44" stroke-linecap="butt" stroke-linejoin="miter"
 d="M 185.836 47.8889 L 189.724 47.8889 "/>
<path
 fill="#d7efc5" stroke="none"
 d="M 178.743 37.6364 L 178.743,37.6364L 196.818,37.6364L 196.818,43.0214L 178.743,43.0214Z"/>
<path
 fill="none" stroke="#000000" stroke-width="1.44" stroke-linecap="butt" stroke-linejoin="miter"
 d="M 185.836 40.3289 L 189.724 40.3289 "/>
<path
 fill="#d7efc5" stroke="none"
 d="M 207.543 16.3464 L 207.543,16.3464L 207.543,33.9714L 201.708,33.9714L 201.708,16.3464Z"/>
<path
 fill="none" stroke="#000000" stroke-width="1.44" stroke-linecap="butt" stroke-linejoin="miter"
 d="M 204.625 23.2149 L 204.625 27.1029 "/>
<path
 fill="#d7efc5" stroke="none"
 d="M 215.103 16.3464 L 215.103,16.3464L 215.103,33.9714L 209.268,33.9714L 209.268,16.3464Z"/>
<path
 fill="none" stroke="#000000" stroke-width="1.44" stroke-linecap="butt" stroke-linejoin="miter"
 d="M 212.185 23.2149 L 212.185 27.1029 "/>
<path
 fill="none" stroke="#5c5c5c" stroke-width="0.5" stroke-linecap="butt" stroke-linejoin="miter"
 d=""/>
<path
 fill="none" stroke="#5c5c5c" stroke-width="0.5" stroke-linecap="butt" stroke-linejoin="miter"
 d=""/>
<path
 fill="none" stroke="#5c5c5c" stroke-width="0.5" stroke-linecap="butt" stroke-linejoin="miter"
 d=""/>
<path
 fill="none" stroke="#5c5c5c" stroke-width="0.5" stroke-linecap="butt" stroke-linejoin="miter"
 d=""/>
<path
 fill="none" stroke="#5c5c5c" stroke-width="0.5" stroke-linecap="butt" stroke-linejoin="miter"
 d=""/>
<path
 fill="none" stroke="#5c5c5c" stroke-width="0.5" stroke-linecap="butt" stroke-linejoin="miter"
 d=""/>
<path
 fill="none" stroke="#5c5c5c" stroke-width="0.5" stroke-linecap="butt" stroke-linejoin="miter"
 d=""/>
<path
 fill="none" stroke="#5c5c5c" stroke-width="0.5" stroke-linecap="butt" stroke-linejoin="miter"
 d=""/>
<path
 fill="none" stroke="#5c5c5c" stroke-width="0.5" stroke-linecap="butt" stroke-linejoin="miter"
 d=""/>
<path
 fill="none" stroke="#5c5c5c" stroke-width="0.5" stroke-linecap="butt" stroke-linejoin="miter"
 d=""/>
<path
 fill="none" stroke="#5c5c5c" stroke-width="0.5" stroke-linecap="butt" stroke-linejoin="miter"
 d=""/>
<path
 fill="none" stroke="#5c5c5c" stroke-width="0.5" stroke-linecap="butt" stroke-linejoin="miter"
 d=""/>
<path
 fill="none" stroke="#5c5c5c" stroke-width="0.5" stroke-linecap="butt" stroke-linejoin="miter"
 d=""/>
<path
 fill="none" stroke="#5c5c5c" stroke-width="0.5" stroke-linecap="butt" stroke-linejoin="miter"
 d=""/>
<path
 fill="none" stroke="#5c5c5c" stroke-width="0.5" stroke-linecap="butt" stroke-linejoin="miter"
 d=""/>
<path
 fill="none" stroke="#5c5c5c" stroke-width="0.5" stroke-linecap="butt" stroke-linejoin="miter"
 d=""/>
<path
 fill="none" stroke="#5c5c5c" stroke-width="0.5" stroke-linecap="butt" stroke-linejoin="miter"
 d=""/>
<path
 fill="none" stroke="#5c5c5c" stroke-width="0.5" stroke-linecap="butt" stroke-linejoin="miter"
 d=""/>
<path
 fill="none" stroke="#5c5c5c" stroke-width="0.5" stroke-linecap="butt" stroke-linejoin="miter"
 d=""/>
<path
 fill="none" stroke="#5c5c5c" stroke-width="0.5" stroke-linecap="butt" stroke-linejoin="miter"
 d=""/>
<path
 fill="none" stroke="#5c5c5c" stroke-width="0.5" stroke-linecap="butt" stroke-linejoin="miter"
 d=""/>
<path
 fill="none" stroke="#5c5c5c" stroke-width="0.5" stroke-linecap="butt" stroke-linejoin="miter"
 d=""/>
<path
 fill="none" stroke="#5c5c5c" stroke-width="0.5" stroke-linecap="butt" stroke-linejoin="miter"
 d=""/>
<path
 fill="none" stroke="#5c5c5c" stroke-width="0.5" stroke-linecap="butt" stroke-linejoin="miter"
 d=""/>
<path
 fill="none" stroke="#5c5c5c" stroke-width="0.5" stroke-linecap="butt" stroke-linejoin="miter"
 d=""/>
<path
 fill="none" stroke="#5c5c5c" stroke-width="0.5" stroke-linecap="butt" stroke-linejoin="miter"
 d=""/>
<path
 fill="none" stroke="#5c5c5c" stroke-width="0.5" stroke-linecap="butt" stroke-linejoin="miter"
 d=""/>
<path
 fill="none" stroke="#5c5c5c" stroke-width="0.5" stroke-linecap="butt" stroke-linejoin="miter"
 d=""/>
<path
 fill="none" stroke="#5c5c5c" stroke-width="0.5" stroke-linecap="butt" stroke-linejoin="miter"
 d=""/>
<path
 fill="none" stroke="#5c5c5c" stroke-width="0.5" stroke-linecap="butt" stroke-linejoin="miter"
 d=""/>
<path
 fill="none" stroke="#5c5c5c" stroke-width="0.5" stroke-linecap="butt" stroke-linejoin="miter"
 d=""/>
<path
 fill="none" stroke="#5c5c5c" stroke-width="0.5" stroke-linecap="butt" stroke-linejoin="miter"
 d=""/>
<path
 fill="none" stroke="#5c5c5c" stroke-width="0.5" stroke-linecap="butt" stroke-linejoin="miter"
 d=""/>
<path
 fill="none" stroke="#5c5c5c" stroke-width="0.5" stroke-linecap="butt" stroke-linejoin="miter"
 d=""/>
<path
 fill="#d90000" stroke="#000000" stroke-width="0.72" stroke-linecap="butt" stroke-linejoin="miter"
 d="M 184.218 47.8889 A 2.5575,2.5575 0 0,1 179.103,47.8889A 2.5575,2.5575 0 0,1 184.218,47.8889Z"/>
<path
 fill="#40c040" stroke="#000000" stroke-width="0.72" stroke-linecap="butt" stroke-linejoin="miter"
 d="M 184.218 40.3289 A 2.5575,2.5575 0 0,1 179.103,40.3289A 2.5575,2.5575 0 0,1 184.218,40.3289Z"/>
<path
 fill="#4040c0" stroke="#000000" stroke-width="0.72" stroke-linecap="butt" stroke-linejoin="miter"
 d="M 185.031 32.8128 A 2.5575,2.5575 0 0,1 179.916,32.8128A 2.5575,2.5575 0 0,1 185.031,32.8128Z"/>
<path
 fill="#4040c0" stroke="#000000" stroke-width="0.72" stroke-linecap="butt" stroke-linejoin="miter"
 d="M 186.678 25.4345 A 2.5575,2.5575 0 0,1 181.563,25.4345A 2.5575,2.5575 0 0,1 186.678,25.4345Z"/>
<path
 fill="#4040c0" stroke="#000000" stroke-width="0.72" stroke-linecap="butt" stroke-linejoin="miter"
 d="M 192.167 20.2353 A 2.5575,2.5575 0 0,1 187.052,20.2353A 2.5575,2.5575 0 0,1 192.167,20.2353Z"/>
<path
 fill="#4040c0" stroke="#000000" stroke-width="0.72" stroke-linecap="butt" stroke-linejoin="miter"
 d="M 199.623 18.9885 A 2.5575,2.5575 0 0,1 194.508,18.9885A 2.5575,2.5575 0 0,1 199.623,18.9885Z"/>
<path
 fill="#40c040" stroke="#000000" stroke-width="0.72" stroke-linecap="butt" stroke-linejoin="miter"
 d="M 207.183 19.0389 A 2.5575,2.5575 0 0,1 202.068,19.0389A 2.5575,2.5575 0 0,1 207.183,19.0389Z"/>
<path
 fill="#d90000" stroke="#000000" stroke-width="0.72" stroke-linecap="butt" stroke-linejoin="miter"
 d="M 214.743 19.0389 A 2.5575,2.5575 0 0,1 209.628,19.0389A 2.5575,2.5575 0 0,1 214.743,19.0389Z"/>
<path
 fill="#d90000" stroke="#000000" stroke-width="0.72" stroke-linecap="butt" stroke-linejoin="miter"
 d="M 222.294 18.6735 A 2.5575,2.5575 0 0,1 217.179,18.6735A 2.5575,2.5575 0 0,1 222.294,18.6735Z"/>
<path
 fill="#d90000" stroke="#000000" stroke-width="0.72" stroke-linecap="butt" stroke-linejoin="miter"
 d="M 226.179 25.1589 A 2.5575,2.5575 0 0,1 221.064,25.1589A 2.5575,2.5575 0 0,1 226.179,25.1589Z"/>
<path
 fill="#d90000" stroke="#000000" stroke-width="0.72" stroke-linecap="butt" stroke-linejoin="miter"
 d="M 222.294 31.6443 A 2.5575,2.5575 0 0,1 217.179,31.6443A 2.5575,2.5575 0 0,1 222.294,31.6443Z"/>
<path
 fill="#d90000" stroke="#000000" stroke-width="0.72" stroke-linecap="butt" stroke-linejoin="miter"
 d="M 214.743 31.2789 A 2.5575,2.5575 0 0,1 209.628,31.2789A 2.5575,2.5575 0 0,1 214.743,31.2789Z"/>
<path
 fill="#40c040" stroke="#000000" stroke-width="0.72" stroke-linecap="butt" stroke-linejoin="miter"
 d="M 207.183 31.2789 A 2.5575,2.5575 0 0,1 202.068,31.2789A 2.5575,2.5575 0 0,1 207.183,31.2789Z"/>
<path
 fill="#4040c0" stroke="#000000" stroke-width="0.72" stroke-linecap="butt" stroke-linejoin="miter"
 d="M 208.945 38.6306 A 2.5575,2.5575 0 0,1 203.83,38.6306A 2.5575,2.5575 0 0,1 208.945,38.6306Z"/>
<path
 fill="#4040c0" stroke="#000000" stroke-width="0.72" stroke-linecap="butt" stroke-linejoin="miter"
 d="M 203.264 43.6188 A 2.5575,2.5575 0 0,1 198.149,43.6188A 2.5575,2.5575 0 0,1 203.264,43.6188Z"/>
<path
 fill="#40c040" stroke="#000000" stroke-width="0.72" stroke-linecap="butt" stroke-linejoin="miter"
 d="M 196.458 40.3289 A 2.5575,2.5575 0 0,1 191.343,40.3289A 2.5575,2.5575 0 0,1 196.458,40.3289Z"/>
<path
 fill="#d90000" stroke="#000000" stroke-width="0.72" stroke-linecap="butt" stroke-linejoin="miter"
 d="M 196.458 47.8889 A 2.5575,2.5575 0 0,1 191.343,47.8889A 2.5575,2.5575 0 0,1 196.458,47.8889Z"/>
<path
 fill="none" stroke="#000000" stroke-width="0.72" stroke-linecap="butt" stroke-linejoin="miter"
 d="M 181.66 51.4528 A 1.78191,1.78191 0 0,1 179.878,53.2347L 176.314 53.2347 "/>
<text x="169.212" y="55.9272" id="text1006">
  <tspan x="169.212" y="55.9272" fill="#000000"  font-variant="normal" font-weight="normal" font-style="normal" font-family="Bitstream Vera Sans" font-size="7.5" id="tspan1007">5&apos;</tspan>
</text>
<text x="0" y="88.7777" id="text1008">
  <tspan x="0" y="88.7777" fill="#000000"  font-variant="normal" font-weight="normal" font-style="normal" font-family="Bitstream Vera Sans" font-size="12" id="tspan1009">solver-formulation2-1 solver=2</tspan>
</text>
<path
 fill="none" stroke="#000000" stroke-width="1.5" stroke-linecap="butt" stroke-linejoin="miter"
 d="M 49.9991 114.543 A 15.7341,15.7341 0 0,1 18.531,114.543A 15.7341,15.7341 0 0,1 49.9991,114.543"/>
<path
 fill="none" stroke="#000000" stroke-width="1.5" stroke-linecap="butt" stroke-linejoin="miter"
 d="M 44.3308 118.198 A 6.41066,6.41066 0 0,1 31.5094,118.198A 6.41066,6.41066 0 0,1 44.3308,118.198"/>
<path
 fill="none" stroke="#000000" stroke-width="0.72" stroke-linecap="butt" stroke-linejoin="miter"
 d="M 44.2 111.688 A 12.7903,12.7903 0 0,1 18.6194,111.688A 12.7903,12.7903 0 0,1 44.2,111.688"/>
<path
 fill="#d7efc5" stroke="none"
 d="M 17.0307 125.937 L 17.0307,125.937L 35.1057,125.937L 35.1057,131.322L 17.0307,131.322Z"/>
<path
 fill="none" stroke="#000000" stroke-width="1.44" stroke-linecap="butt" stroke-linejoin="miter"
 d="M 24.1242 128.629 L 28.0122 128.629 "/>
<path
 fill="#d7efc5" stroke="none"
 d="M 17.0307 118.377 L 17.0307,118.377L 35.1057,118.377L 35.1057,123.762L 17.0307,123.762Z"/>
<path
 fill="none" stroke="#000000" stroke-width="1.44" stroke-linecap="butt" stroke-linejoin="miter"
 d="M 24.1242 121.069 L 28.0122 121.069 "/>
<path
 fill="#d7efc5" stroke="none"
 d="M 43.7085 97.5339 L 43.7085,97.5339L 43.7085,115.159L 37.8735,115.159L 37.8735,97.5339Z"/>
<path
 fill="none" stroke="#000000" stroke-width="1.44" stroke-linecap="butt" stroke-linejoin="miter"
 d="M 40.791 104.402 L 40.791 108.29 "/>
<path
 fill="#d7efc5" stroke="none"
 d="M 51.2685 97.5339 L 51.2685,97.5339L 51.2685,115.159L 45.4335,115.159L 45.4335,97.5339Z"/>
<path
 fill="none" stroke="#000000" stroke-width="1.44" stroke-linecap="butt" stroke-linejoin="miter"
 d="M 48.351 104.402 L 48.351 108.29 "/>
<path
 fill="none" stroke="#5c5c5c" stroke-width="0.5" stroke-linecap="butt" stroke-linejoin="miter"
 d=""/>
<path
 fill="none" stroke="#5c5c5c" stroke-width="0.5" stroke-linecap="butt" stroke-linejoin="miter"
 d=""/>
<path
 fill="none" stroke="#5c5c5c" stroke-width="0.5" stroke-linecap="butt" stroke-linejoin="miter"
 d=""/>
<path
 fill="none" stroke="#5c5c5c" stroke-width="0.5" stroke-linecap="butt" stroke-linejoin="miter"
 d=""/>
<path
 fill="none" stroke="#5c5c5c" stroke-width="0.5" stroke-linecap="butt" stroke-linejoin="miter"
 d=""/>
<path
 fill="none" stroke="#5c5c5c" stroke-width="0.5" stroke-linecap="butt" stroke-linejoin="miter"
 d=""/>
<path
 fill="none" stroke="#5c5c5c" stroke-width="0.5" stroke-linecap="butt" stroke-linejoin="miter"
 d=""/>
<path
 fill="none" stroke="#5c5c5c" stroke-width="0.5" stroke-linecap="butt" stroke-linejoin="miter"
 d=""/>
<path
 fill="none" stroke="#5c5c5c" stroke-width="0.5" stroke-linecap="butt" stroke-linejoin="miter"
 d=""/>
<path
 fill="none" stroke="#5c5c5c" stroke-width="0.5" stroke-linecap="butt" stroke-linejoin="miter"
 d=""/>
<path
 fill="none" stroke="#5c5c5c" stroke-width="0.5" stroke-linecap="butt" stroke-linejoin="miter"
 d=""/>
<path
 fill="none" stroke="#5c5c5c" stroke-width="0.5" stroke-linecap="butt" stroke-linejoin="miter"
 d=""/>
<path
 fill="none" stroke="#5c5c5c" stroke-width="0.5" stroke-linecap="butt" stroke-linejoin="miter"
 d=""/>
<path
 fill="none" stroke="#5c5c5c" stroke-width="0.5" stroke-linecap="butt" stroke-linejoin="miter"
 d=""/>
<path
 fill="none" stroke="#5c5c5c" stroke-width="0.5" stroke-linecap="butt" stroke-linejoin="miter"
 d=""/>
<path
 fill="none" stroke="#5c5c5c" stroke-width="0.5" stroke-linecap="butt" stroke-linejoin="miter"
 d=""/>
<path
 fill="none" stroke="#5c5c5c" stroke-width="0.5" stroke-linecap="butt" stroke-linejoin="miter"
 d=""/>
<path
 fill="none" stroke="#5c5c5c" stroke-width="0.5" stroke-linecap="butt" stroke-linejoin="miter"
 d=""/>
<path
 fill="none" stroke="#5c5c5c" stroke-width="0.5" stroke-linecap="butt" stroke-linejoin="miter"
 d=""/>
<path
 fill="none" stroke="#5c5c5c" stroke-width="0.5" stroke-linecap="butt" stroke-linejoin="miter"
 d=""/>
<path
 fill="none" stroke="#5c5c5c" stroke-width="0.5" stroke-linecap="butt" stroke-linejoin="miter"
 d=""/>
<path
 fill="none" stroke="#5c5c5c" stroke-width="0.5" stroke-linecap="butt" stroke-linejoin="miter"
 d=""/>
<path
 fill="none" stroke="#5c5c5c" stroke-width="0.5" stroke-linecap="butt" stroke-linejoin="miter"
 d=""/>
<path
 fill="none" stroke="#5c5c5c" stroke-width="0.5" stroke-linecap="butt" stroke-linejoin="miter"
 d=""/>
<path
 fill="none" stroke="#5c5c5c" stroke-width="0.5" stroke-linecap="butt" stroke-linejoin="miter"
 d=""/>
<path
 fill="none" stroke="#5c5c5c" stroke-width="0.5" stroke-linecap="butt" stroke-linejoin="miter"
 d=""/>
<path
 fill="none" stroke="#5c5c5c" stroke-width="0.5" stroke-linecap="butt" stroke-linejoin="miter"
 d=""/>
<path
 fill="none" stroke="#5c5c5c" stroke-width="0.5" stroke-linecap="butt" stroke-linejoin="miter"
 d=""/>
<path
 fill="none" stroke="#5c5c5c" stroke-width="0.5" stroke-linecap="butt" stroke-linejoin="miter"
 d=""/>
<path
 fill="none" stroke="#5c5c5c" stroke-width="0.5" stroke-linecap="butt" stroke-linejoin="miter"
 d=""/>
<path
 fill="none" stroke="#5c5c5c" stroke-width="0.5" stroke-linecap="butt" stroke-linejoin="miter"
 d=""/>
<path
 fill="none" stroke="#5c5c5c" stroke-width="0.5" stroke-linecap="butt" stroke-linejoin="miter"
 d=""/>
<path
 fill="none" stroke="#5c5c5c" stroke-width="0.5" stroke-linecap="butt" stroke-linejoin="miter"
 d=""/>
<path
 fill="none" stroke="#5c5c5c" stroke-width="0.5" stroke-linecap="butt" stroke-linejoin="miter"
 d=""/>
<path
 fill="#d90000" stroke="#000000" stroke-width="0.72" stroke-linecap="butt" stroke-linejoin="miter"
 d="M 22.5057 128.629 A 2.5575,2.5575 0 0,1 17.3907,128.629A 2.5575,2.5575 0 0,1 22.5057,128.629Z"/>
<path
 fill="#40c040" stroke="#000000" stroke-width="0.72" stroke-linecap="butt" stroke-linejoin="miter"
 d="M 22.5057 121.069 A 2.5575,2.5575 0 0,1 17.3907,121.069A 2.5575,2.5575 0 0,1 22.5057,121.069Z"/>
<path
 fill="#4040c0" stroke="#000000" stroke-width="0.72" stroke-linecap="butt" stroke-linejoin="miter"
 d="M 21.1146 113.638 A 2.5575,2.5575 0 0,1 15.9996,113.638A 2.5575,2.5575 0 0,1 21.1146,113.638Z"/>
<path
 fill="#4040c0" stroke="#000000" stroke-width="0.72" stroke-linecap="butt" stroke-linejoin="miter"
 d="M 23.3499 106.416 A 2.5575,2.5575 0 0,1 18.2349,106.416A 2.5575,2.5575 0 0,1 23.3499,106.416Z"/>
<path
 fill="#4040c0" stroke="#000000" stroke-width="0.72" stroke-linecap="butt" stroke-linejoin="miter"
 d="M 28.6956 101.071 A 2.5575,2.5575 0 0,1 23.5806,101.071A 2.5575,2.5575 0 0,1 28.6956,101.071Z"/>
<path
 fill="#4040c0" stroke="#000000" stroke-width="0.72" stroke-linecap="butt" stroke-linejoin="miter"
 d="M 35.9176 98.8352 A 2.5575,2.5575 0 0,1 30.8026,98.8352A 2.5575,2.5575 0 0,1 35.9176,98.8352Z"/>
<path
 fill="#40c040" stroke="#000000" stroke-width="0.72" stroke-linecap="butt" stroke-linejoin="miter"
 d="M 43.3485 100.226 A 2.5575,2.5575 0 0,1 38.2335,100.226A 2.5575,2.5575 0 0,1 43.3485,100.226Z"/>
<path
 fill="#d90000" stroke="#000000" stroke-width="0.72" stroke-linecap="butt" stroke-linejoin="miter"
 d="M 50.9085 100.226 A 2.5575,2.5575 0 0,1 45.7935,100.226A 2.5575,2.5575 0 0,1 50.9085,100.226Z"/>
<path
 fill="#d90000" stroke="#000000" stroke-width="0.72" stroke-linecap="butt" stroke-linejoin="miter"
 d="M 58.4597 99.861 A 2.5575,2.5575 0 0,1 53.3447,99.861A 2.5575,2.5575 0 0,1 58.4597,99.861Z"/>
<path
 fill="#d90000" stroke="#000000" stroke-width="0.72" stroke-linecap="butt" stroke-linejoin="miter"
 d="M 62.3447 106.346 A 2.5575,2.5575 0 0,1 57.2297,106.346A 2.5575,2.5575 0 0,1 62.3447,106.346Z"/>
<path
 fill="#d90000" stroke="#000000" stroke-width="0.72" stroke-linecap="butt" stroke-linejoin="miter"
 d="M 58.4597 112.832 A 2.5575,2.5575 0 0,1 53.3447,112.832A 2.5575,2.5575 0 0,1 58.4597,112.832Z"/>
<path
 fill="#d90000" stroke="#000000" stroke-width="0.72" stroke-linecap="butt" stroke-linejoin="miter"
 d="M 50.9085 112.466 A 2.5575,2.5575 0 0,1 45.7935,112.466A 2.5575,2.5575 0 0,1 50.9085,112.466Z"/>
<path
 fill="#40c040" stroke="#000000" stroke-width="0.72" stroke-linecap="butt" stroke-linejoin="miter"
 d="M 43.3485 112.466 A 2.5575,2.5575 0 0,1 38.2335,112.466A 2.5575,2.5575 0 0,1 43.3485,112.466Z"/>
<path
 fill="#4040c0" stroke="#000000" stroke-width="0.72" stroke-linecap="butt" stroke-linejoin="miter"
 d="M 46.8116 119.187 A 2.5575,2.5575 0 0,1 41.6966,119.187A 2.5575,2.5575 0 0,1 46.8116,119.187Z"/>
<path
 fill="#4040c0" stroke="#000000" stroke-width="0.72" stroke-linecap="butt" stroke-linejoin="miter"
 d="M 41.4659 124.532 A 2.5575,2.5575 0 0,1 36.3509,124.532A 2.5575,2.5575 0 0,1 41.4659,124.532Z"/>
<path
 fill="#40c040" stroke="#000000" stroke-width="0.72" stroke-linecap="butt" stroke-linejoin="miter"
 d="M 34.7457 121.069 A 2.5575,2.5575 0 0,1 29.6307,121.069A 2.5575,2.5575 0 0,1 34.7457,121.069Z"/>
<path
 fill="#d90000" stroke="#000000" stroke-width="0.72" stroke-linecap="butt" stroke-linejoin="miter"
 d="M 34.7457 128.629 A 2.5575,2.5575 0 0,1 29.6307,128.629A 2.5575,2.5575 0 0,1 34.7457,128.629Z"/>
<path
 fill="none" stroke="#000000" stroke-width="0.72" stroke-linecap="butt" stroke-linejoin="miter"
 d="M 19.9482 132.193 A 1.78191,1.78191 0 0,1 18.1663,133.975L 14.6025 133.975 "/>
<text x="7.5" y="136.667" id="text1010">
  <tspan x="7.5" y="136.667" fill="#000000"  font-variant="normal" font-weight="normal" font-style="normal" font-family="Bitstream Vera Sans" font-size="7.5" id="tspan1011">5&apos;</tspan>
</text>
</svg>
