<svg
   xmlns:svg="http://www.w3.org/2000/svg"
   xmlns="http://www.w3.org/2000/svg"
   xmlns:xlink="http://www.w3.org/1999/xlink"
   version="1.0"
   width="288"
   height="433.733"
   id="svg2403"
   xml:space="preserve">
<text x="0" y="8.616" id="text1000">
  <tspan x="0" y="8.616" fill="#000000"  font-variant="normal" font-weight="normal" font-style="normal" font-family="Bitstream Vera Sans" font-size="12" id="tspan1001">WARNING: R2R is not intended to evaluate evidence</tspan>
</text>
<text x="0" y="18.9552" id="text1002">
  <tspan x="0" y="18.9552" fill="#000000"  font-variant="normal" font-weight="normal" font-style="normal" font-family="Bitstream Vera Sans" font-size="12" id="tspan1003">for covariation or RNA structure where this is in</tspan>
</text>
<text x="0" y="29.2944" id="text1004">
  <tspan x="0" y="29.2944" fill="#000000"  font-variant="normal" font-weight="normal" font-style="normal" font-family="Bitstream Vera Sans" font-size="12" id="tspan1005">question. It is not appropriate to use R2R&apos;s covariation</tspan>
</text>
<text x="0" y="42.6144" id="text1006">
  <tspan x="0" y="42.6144" fill="#000000"  font-variant="normal" font-weight="normal" font-style="normal" font-family="Bitstream Vera Sans" font-size="12" id="tspan1007">markings to declare that there is evidence of</tspan>
</text>
<text x="0" y="55.9344" id="text1008">
  <tspan x="0" y="55.9344" fill="#000000"  font-variant="normal" font-weight="normal" font-style="normal" font-family="Bitstream Vera Sans" font-size="12" id="tspan1009">structural conservation within an alignment. R2R is a</tspan>
</text>
<text x="0" y="69.2544" id="text1010">
  <tspan x="0" y="69.2544" fill="#000000"  font-variant="normal" font-weight="normal" font-style="normal" font-family="Bitstream Vera Sans" font-size="12" id="tspan1011">drawing program. As the original paper, Weinberg</tspan>
</text>
<text x="0" y="82.5744" id="text1012">
  <tspan x="0" y="82.5744" fill="#000000"  font-variant="normal" font-weight="normal" font-style="normal" font-family="Bitstream Vera Sans" font-size="12" id="tspan1013">and Breaker, 2011 wrote:</tspan>
</text>
<text x="0" y="92.9136" id="text1014">
  <tspan x="0" y="92.9136" fill="#000000"  font-variant="normal" font-weight="normal" font-style="normal" font-family="Bitstream Vera Sans" font-size="12" id="tspan1015">&quot;This automated R2R annotation [of covariation] does</tspan>
</text>
<text x="0" y="103.253" id="text1016">
  <tspan x="0" y="103.253" fill="#000000"  font-variant="normal" font-weight="normal" font-style="normal" font-family="Bitstream Vera Sans" font-size="12" id="tspan1017">not reflect the extent or confidence of covariation.</tspan>
</text>
<text x="0" y="113.592" id="text1018">
  <tspan x="0" y="113.592" fill="#000000"  font-variant="normal" font-weight="normal" font-style="normal" font-family="Bitstream Vera Sans" font-size="12" id="tspan1019">While such information can be useful, we believe that</tspan>
</text>
<text x="0" y="123.931" id="text1020">
  <tspan x="0" y="123.931" fill="#000000"  font-variant="normal" font-weight="normal" font-style="normal" font-family="Bitstream Vera Sans" font-size="12" id="tspan1021">thorough evaluation of covariation evidence ultimately</tspan>
</text>
<text x="0" y="137.251" id="text1022">
  <tspan x="0" y="137.251" fill="#000000"  font-variant="normal" font-weight="normal" font-style="normal" font-family="Bitstream Vera Sans" font-size="12" id="tspan1023">requires analysis of the full sequence alignment. For</tspan>
</text>
<text x="0" y="150.571" id="text1024">
  <tspan x="0" y="150.571" fill="#000000"  font-variant="normal" font-weight="normal" font-style="normal" font-family="Bitstream Vera Sans" font-size="12" id="tspan1025">example, misleading covariation can result from an</tspan>
</text>
<text x="0" y="163.891" id="text1026">
  <tspan x="0" y="163.891" fill="#000000"  font-variant="normal" font-weight="normal" font-style="normal" font-family="Bitstream Vera Sans" font-size="12" id="tspan1027">incorrect alignment of sequences, or from alignments</tspan>
</text>
<text x="0" y="177.211" id="text1028">
  <tspan x="0" y="177.211" fill="#000000"  font-variant="normal" font-weight="normal" font-style="normal" font-family="Bitstream Vera Sans" font-size="12" id="tspan1029">of sequences that do not function as structured RNAs.</tspan>
</text>
<text x="0" y="190.531" id="text1030">
  <tspan x="0" y="190.531" fill="#000000"  font-variant="normal" font-weight="normal" font-style="normal" font-family="Bitstream Vera Sans" font-size="12" id="tspan1031">Unfortunately, there is no accepted method to assign</tspan>
</text>
<text x="0" y="203.851" id="text1032">
  <tspan x="0" y="203.851" fill="#000000"  font-variant="normal" font-weight="normal" font-style="normal" font-family="Bitstream Vera Sans" font-size="12" id="tspan1033">confidence that entirely eliminates the need to</tspan>
</text>
<text x="0" y="217.171" id="text1034">
  <tspan x="0" y="217.171" fill="#000000"  font-variant="normal" font-weight="normal" font-style="normal" font-family="Bitstream Vera Sans" font-size="12" id="tspan1035">analyze the full alignment. To disable this warning,</tspan>
</text>
<text x="0" y="230.491" id="text1036">
  <tspan x="0" y="230.491" fill="#000000"  font-variant="normal" font-weight="normal" font-style="normal" font-family="Bitstream Vera Sans" font-size="12" id="tspan1037">run r2r with --disable-usage-warning&quot;</tspan>
</text>
<path
 fill="none" stroke="#666666" stroke-width="0.5" stroke-linecap="butt" stroke-linejoin="miter"
 d="M 0 0 L 288 0 L 288 235.195 L 0 235.195 L 0 0 "/>
<text x="0" y="253.811" id="text1038">
  <tspan x="0" y="253.811" fill="#000000"  font-variant="normal" font-weight="normal" font-style="normal" font-family="Bitstream Vera Sans" font-size="12" id="tspan1039">Rhodopirellula-1.cons</tspan>
</text>
<path
 fill="none" stroke="#000000" stroke-width="1.5" stroke-linecap="butt" stroke-linejoin="miter"
 d="M 76.1082 281.42 A 12.24,12.24 0 0,1 51.6282,281.42A 12.24,12.24 0 0,1 76.1082,281.42"/>
<path
 fill="#ffffff" stroke="none"
 d="M 54.8307 297.93 L 54.8307,297.93L 72.9057,297.93L 72.9057,285.69L 54.8307,285.69Z"/>
<text x="52.1945" y="269.18" id="text1040">
  <tspan x="52.1945" y="269.18" fill="#000000"  font-variant="normal" font-weight="normal" font-style="normal" font-family="Bitstream Vera Sans" font-size="7.5" id="tspan1041">1-71 nt</tspan>
</text>
<path
 fill="none" stroke="#000000" stroke-width="1.44" stroke-linecap="butt" stroke-linejoin="miter"
 d="M 61.9242 418.195 L 65.8122 418.195 "/>
<path
 fill="none" stroke="#000000" stroke-width="1.44" stroke-linecap="butt" stroke-linejoin="miter"
 d="M 61.9242 410.635 L 65.8122 410.635 "/>
<path
 fill="none" stroke="#000000" stroke-width="1.44" stroke-linecap="butt" stroke-linejoin="miter"
 d="M 61.9242 403.075 L 65.8122 403.075 "/>
<path
 fill="#d7efc5" stroke="none"
 d="M 54.8307 392.822 L 54.8307,392.822L 72.9057,392.822L 72.9057,398.207L 54.8307,398.207Z"/>
<path
 fill="none" stroke="#000000" stroke-width="1.44" stroke-linecap="butt" stroke-linejoin="miter"
 d="M 61.9242 395.515 L 65.8122 395.515 "/>
<path
 fill="#c8d8fa" stroke="none"
 d="M 54.8307 385.262 L 54.8307,385.262L 72.9057,385.262L 72.9057,390.647L 54.8307,390.647Z"/>
<path
 fill="none" stroke="#000000" stroke-width="1.44" stroke-linecap="butt" stroke-linejoin="miter"
 d="M 61.9242 387.955 L 65.8122 387.955 "/>
<path
 fill="#d7efc5" stroke="none"
 d="M 54.8307 377.702 L 54.8307,377.702L 72.9057,377.702L 72.9057,383.087L 54.8307,383.087Z"/>
<path
 fill="none" stroke="#000000" stroke-width="1.44" stroke-linecap="butt" stroke-linejoin="miter"
 d="M 61.9242 380.395 L 65.8122 380.395 "/>
<path
 fill="#d7efc5" stroke="none"
 d="M 54.8307 370.142 L 54.8307,370.142L 72.9057,370.142L 72.9057,375.527L 54.8307,375.527Z"/>
<path
 fill="none" stroke="#000000" stroke-width="1.44" stroke-linecap="butt" stroke-linejoin="miter"
 d="M 61.9242 372.835 L 65.8122 372.835 "/>
<path
 fill="#d7efc5" stroke="none"
 d="M 54.8307 362.582 L 54.8307,362.582L 72.9057,362.582L 72.9057,367.967L 54.8307,367.967Z"/>
<path
 fill="none" stroke="#000000" stroke-width="1.44" stroke-linecap="butt" stroke-linejoin="miter"
 d="M 61.9242 365.275 L 65.8122 365.275 "/>
<path
 fill="#d7efc5" stroke="none"
 d="M 54.8307 355.022 L 54.8307,355.022L 72.9057,355.022L 72.9057,360.407L 54.8307,360.407Z"/>
<path
 fill="none" stroke="#000000" stroke-width="1.44" stroke-linecap="butt" stroke-linejoin="miter"
 d="M 61.9242 357.715 L 65.8122 357.715 "/>
<path
 fill="#d7efc5" stroke="none"
 d="M 54.8307 347.462 L 54.8307,347.462L 72.9057,347.462L 72.9057,352.847L 54.8307,352.847Z"/>
<path
 fill="none" stroke="#000000" stroke-width="1.44" stroke-linecap="butt" stroke-linejoin="miter"
 d="M 61.9242 350.155 L 65.8122 350.155 "/>
<path
 fill="#d7efc5" stroke="none"
 d="M 54.8307 339.902 L 54.8307,339.902L 72.9057,339.902L 72.9057,345.287L 54.8307,345.287Z"/>
<path
 fill="none" stroke="#000000" stroke-width="1.44" stroke-linecap="butt" stroke-linejoin="miter"
 d="M 61.9242 342.595 L 65.8122 342.595 "/>
<path
 fill="#d7efc5" stroke="none"
 d="M 54.8307 332.342 L 54.8307,332.342L 72.9057,332.342L 72.9057,337.727L 54.8307,337.727Z"/>
<path
 fill="none" stroke="#000000" stroke-width="1.44" stroke-linecap="butt" stroke-linejoin="miter"
 d="M 61.9242 335.035 L 65.8122 335.035 "/>
<path
 fill="#d7efc5" stroke="none"
 d="M 54.8307 324.782 L 54.8307,324.782L 72.9057,324.782L 72.9057,330.167L 54.8307,330.167Z"/>
<path
 fill="none" stroke="#000000" stroke-width="1.44" stroke-linecap="butt" stroke-linejoin="miter"
 d="M 61.9242 327.475 L 65.8122 327.475 "/>
<path
 fill="#d7efc5" stroke="none"
 d="M 54.8307 317.222 L 54.8307,317.222L 72.9057,317.222L 72.9057,322.607L 54.8307,322.607Z"/>
<path
 fill="none" stroke="#000000" stroke-width="1.44" stroke-linecap="butt" stroke-linejoin="miter"
 d="M 61.9242 319.915 L 65.8122 319.915 "/>
<path
 fill="#d7efc5" stroke="none"
 d="M 54.8307 309.662 L 54.8307,309.662L 72.9057,309.662L 72.9057,315.047L 54.8307,315.047Z"/>
<path
 fill="none" stroke="#000000" stroke-width="1.44" stroke-linecap="butt" stroke-linejoin="miter"
 d="M 61.9242 312.355 L 65.8122 312.355 "/>
<path
 fill="#d7efc5" stroke="none"
 d="M 54.8307 302.102 L 54.8307,302.102L 72.9057,302.102L 72.9057,307.487L 54.8307,307.487Z"/>
<path
 fill="none" stroke="#000000" stroke-width="1.44" stroke-linecap="butt" stroke-linejoin="miter"
 d="M 61.9242 304.795 L 65.8122 304.795 "/>
<path
 fill="#d7efc5" stroke="none"
 d="M 54.8307 294.542 L 54.8307,294.542L 72.9057,294.542L 72.9057,299.927L 54.8307,299.927Z"/>
<path
 fill="none" stroke="#000000" stroke-width="1.44" stroke-linecap="butt" stroke-linejoin="miter"
 d="M 61.9242 297.235 L 65.8122 297.235 "/>
<path
 fill="none" stroke="#000000" stroke-width="1.44" stroke-linecap="butt" stroke-linejoin="miter"
 d="M 61.9242 289.675 L 65.8122 289.675 "/>
<path
 fill="none" stroke="#5c5c5c" stroke-width="0.5" stroke-linecap="butt" stroke-linejoin="miter"
 d=""/>
<path
 fill="none" stroke="#5c5c5c" stroke-width="0.5" stroke-linecap="butt" stroke-linejoin="miter"
 d=""/>
<path
 fill="none" stroke="#5c5c5c" stroke-width="0.5" stroke-linecap="butt" stroke-linejoin="miter"
 d=""/>
<path
 fill="none" stroke="#5c5c5c" stroke-width="0.5" stroke-linecap="butt" stroke-linejoin="miter"
 d=""/>
<path
 fill="none" stroke="#5c5c5c" stroke-width="0.5" stroke-linecap="butt" stroke-linejoin="miter"
 d=""/>
<path
 fill="none" stroke="#5c5c5c" stroke-width="0.5" stroke-linecap="butt" stroke-linejoin="miter"
 d=""/>
<path
 fill="none" stroke="#5c5c5c" stroke-width="0.5" stroke-linecap="butt" stroke-linejoin="miter"
 d=""/>
<path
 fill="none" stroke="#5c5c5c" stroke-width="0.5" stroke-linecap="butt" stroke-linejoin="miter"
 d=""/>
<path
 fill="none" stroke="#5c5c5c" stroke-width="0.5" stroke-linecap="butt" stroke-linejoin="miter"
 d=""/>
<path
 fill="none" stroke="#5c5c5c" stroke-width="0.5" stroke-linecap="butt" stroke-linejoin="miter"
 d=""/>
<path
 fill="none" stroke="#5c5c5c" stroke-width="0.5" stroke-linecap="butt" stroke-linejoin="miter"
 d=""/>
<path
 fill="none" stroke="#5c5c5c" stroke-width="0.5" stroke-linecap="butt" stroke-linejoin="miter"
 d=""/>
<path
 fill="none" stroke="#5c5c5c" stroke-width="0.5" stroke-linecap="butt" stroke-linejoin="miter"
 d=""/>
<path
 fill="none" stroke="#5c5c5c" stroke-width="0.5" stroke-linecap="butt" stroke-linejoin="miter"
 d=""/>
<path
 fill="none" stroke="#5c5c5c" stroke-width="0.5" stroke-linecap="butt" stroke-linejoin="miter"
 d=""/>
<path
 fill="none" stroke="#5c5c5c" stroke-width="0.5" stroke-linecap="butt" stroke-linejoin="miter"
 d=""/>
<path
 fill="none" stroke="#5c5c5c" stroke-width="0.5" stroke-linecap="butt" stroke-linejoin="miter"
 d=""/>
<path
 fill="none" stroke="#5c5c5c" stroke-width="0.5" stroke-linecap="butt" stroke-linejoin="miter"
 d=""/>
<path
 fill="none" stroke="#5c5c5c" stroke-width="0.5" stroke-linecap="butt" stroke-linejoin="miter"
 d=""/>
<path
 fill="none" stroke="#5c5c5c" stroke-width="0.5" stroke-linecap="butt" stroke-linejoin="miter"
 d=""/>
<path
 fill="none" stroke="#5c5c5c" stroke-width="0.5" stroke-linecap="butt" stroke-linejoin="miter"
 d=""/>
<path
 fill="none" stroke="#5c5c5c" stroke-width="0.5" stroke-linecap="butt" stroke-linejoin="miter"
 d=""/>
<path
 fill="none" stroke="#5c5c5c" stroke-width="0.5" stroke-linecap="butt" stroke-linejoin="miter"
 d=""/>
<path
 fill="none" stroke="#5c5c5c" stroke-width="0.5" stroke-linecap="butt" stroke-linejoin="miter"
 d=""/>
<path
 fill="none" stroke="#5c5c5c" stroke-width="0.5" stroke-linecap="butt" stroke-linejoin="miter"
 d=""/>
<path
 fill="none" stroke="#5c5c5c" stroke-width="0.5" stroke-linecap="butt" stroke-linejoin="miter"
 d=""/>
<path
 fill="none" stroke="#5c5c5c" stroke-width="0.5" stroke-linecap="butt" stroke-linejoin="miter"
 d=""/>
<path
 fill="none" stroke="#5c5c5c" stroke-width="0.5" stroke-linecap="butt" stroke-linejoin="miter"
 d=""/>
<path
 fill="none" stroke="#5c5c5c" stroke-width="0.5" stroke-linecap="butt" stroke-linejoin="miter"
 d=""/>
<path
 fill="none" stroke="#5c5c5c" stroke-width="0.5" stroke-linecap="butt" stroke-linejoin="miter"
 d=""/>
<path
 fill="none" stroke="#5c5c5c" stroke-width="0.5" stroke-linecap="butt" stroke-linejoin="miter"
 d=""/>
<path
 fill="none" stroke="#5c5c5c" stroke-width="0.5" stroke-linecap="butt" stroke-linejoin="miter"
 d=""/>
<path
 fill="none" stroke="#5c5c5c" stroke-width="0.5" stroke-linecap="butt" stroke-linejoin="miter"
 d=""/>
<path
 fill="none" stroke="#5c5c5c" stroke-width="0.5" stroke-linecap="butt" stroke-linejoin="miter"
 d=""/>
<path
 fill="none" stroke="#5c5c5c" stroke-width="0.5" stroke-linecap="butt" stroke-linejoin="miter"
 d=""/>
<path
 fill="none" stroke="#5c5c5c" stroke-width="0.5" stroke-linecap="butt" stroke-linejoin="miter"
 d=""/>
<path
 fill="none" stroke="#5c5c5c" stroke-width="0.5" stroke-linecap="butt" stroke-linejoin="miter"
 d=""/>
<path
 fill="none" stroke="#5c5c5c" stroke-width="0.5" stroke-linecap="butt" stroke-linejoin="miter"
 d=""/>
<path
 fill="none" stroke="#5c5c5c" stroke-width="0.5" stroke-linecap="butt" stroke-linejoin="miter"
 d=""/>
<path
 fill="none" stroke="#5c5c5c" stroke-width="0.5" stroke-linecap="butt" stroke-linejoin="miter"
 d=""/>
<path
 fill="none" stroke="#5c5c5c" stroke-width="0.5" stroke-linecap="butt" stroke-linejoin="miter"
 d=""/>
<path
 fill="none" stroke="#5c5c5c" stroke-width="0.5" stroke-linecap="butt" stroke-linejoin="miter"
 d=""/>
<path
 fill="none" stroke="#5c5c5c" stroke-width="0.5" stroke-linecap="butt" stroke-linejoin="miter"
 d=""/>
<path
 fill="none" stroke="#5c5c5c" stroke-width="0.5" stroke-linecap="butt" stroke-linejoin="miter"
 d=""/>
<path
 fill="none" stroke="#5c5c5c" stroke-width="0.5" stroke-linecap="butt" stroke-linejoin="miter"
 d=""/>
<path
 fill="none" stroke="#5c5c5c" stroke-width="0.5" stroke-linecap="butt" stroke-linejoin="miter"
 d=""/>
<path
 fill="none" stroke="#5c5c5c" stroke-width="0.5" stroke-linecap="butt" stroke-linejoin="miter"
 d=""/>
<path
 fill="none" stroke="#5c5c5c" stroke-width="0.5" stroke-linecap="butt" stroke-linejoin="miter"
 d=""/>
<path
 fill="none" stroke="#5c5c5c" stroke-width="0.5" stroke-linecap="butt" stroke-linejoin="miter"
 d=""/>
<path
 fill="none" stroke="#5c5c5c" stroke-width="0.5" stroke-linecap="butt" stroke-linejoin="miter"
 d=""/>
<path
 fill="none" stroke="#5c5c5c" stroke-width="0.5" stroke-linecap="butt" stroke-linejoin="miter"
 d=""/>
<path
 fill="none" stroke="#5c5c5c" stroke-width="0.5" stroke-linecap="butt" stroke-linejoin="miter"
 d=""/>
<path
 fill="none" stroke="#5c5c5c" stroke-width="0.5" stroke-linecap="butt" stroke-linejoin="miter"
 d=""/>
<path
 fill="none" stroke="#5c5c5c" stroke-width="0.5" stroke-linecap="butt" stroke-linejoin="miter"
 d=""/>
<path
 fill="none" stroke="#5c5c5c" stroke-width="0.5" stroke-linecap="butt" stroke-linejoin="miter"
 d=""/>
<path
 fill="none" stroke="#5c5c5c" stroke-width="0.5" stroke-linecap="butt" stroke-linejoin="miter"
 d=""/>
<path
 fill="none" stroke="#5c5c5c" stroke-width="0.5" stroke-linecap="butt" stroke-linejoin="miter"
 d=""/>
<path
 fill="none" stroke="#5c5c5c" stroke-width="0.5" stroke-linecap="butt" stroke-linejoin="miter"
 d=""/>
<path
 fill="none" stroke="#5c5c5c" stroke-width="0.5" stroke-linecap="butt" stroke-linejoin="miter"
 d=""/>
<path
 fill="none" stroke="#5c5c5c" stroke-width="0.5" stroke-linecap="butt" stroke-linejoin="miter"
 d=""/>
<path
 fill="none" stroke="#5c5c5c" stroke-width="0.5" stroke-linecap="butt" stroke-linejoin="miter"
 d=""/>
<path
 fill="none" stroke="#5c5c5c" stroke-width="0.5" stroke-linecap="butt" stroke-linejoin="miter"
 d=""/>
<path
 fill="none" stroke="#5c5c5c" stroke-width="0.5" stroke-linecap="butt" stroke-linejoin="miter"
 d=""/>
<path
 fill="none" stroke="#5c5c5c" stroke-width="0.5" stroke-linecap="butt" stroke-linejoin="miter"
 d=""/>
<path
 fill="none" stroke="#5c5c5c" stroke-width="0.5" stroke-linecap="butt" stroke-linejoin="miter"
 d=""/>
<path
 fill="none" stroke="#5c5c5c" stroke-width="0.5" stroke-linecap="butt" stroke-linejoin="miter"
 d=""/>
<path
 fill="none" stroke="#5c5c5c" stroke-width="0.5" stroke-linecap="butt" stroke-linejoin="miter"
 d=""/>
<path
 fill="none" stroke="#5c5c5c" stroke-width="0.5" stroke-linecap="butt" stroke-linejoin="miter"
 d=""/>
<path
 fill="none" stroke="#5c5c5c" stroke-width="0.5" stroke-linecap="butt" stroke-linejoin="miter"
 d=""/>
<path
 fill="none" stroke="#5c5c5c" stroke-width="0.5" stroke-linecap="butt" stroke-linejoin="miter"
 d=""/>
<path
 fill="none" stroke="#5c5c5c" stroke-width="0.5" stroke-linecap="butt" stroke-linejoin="miter"
 d=""/>
<path
 fill="none" stroke="#5c5c5c" stroke-width="0.5" stroke-linecap="butt" stroke-linejoin="miter"
 d=""/>
<path
 fill="none" stroke="#5c5c5c" stroke-width="0.5" stroke-linecap="butt" stroke-linejoin="miter"
 d=""/>
<path
 fill="none" stroke="#5c5c5c" stroke-width="0.5" stroke-linecap="butt" stroke-linejoin="miter"
 d=""/>
<path
 fill="none" stroke="#5c5c5c" stroke-width="0.5" stroke-linecap="butt" stroke-linejoin="miter"
 d=""/>
<path
 fill="none" stroke="#5c5c5c" stroke-width="0.5" stroke-linecap="butt" stroke-linejoin="miter"
 d=""/>
<path
 fill="none" stroke="#5c5c5c" stroke-width="0.5" stroke-linecap="butt" stroke-linejoin="miter"
 d=""/>
<path
 fill="none" stroke="#5c5c5c" stroke-width="0.5" stroke-linecap="butt" stroke-linejoin="miter"
 d=""/>
<path
 fill="none" stroke="#5c5c5c" stroke-width="0.5" stroke-linecap="butt" stroke-linejoin="miter"
 d=""/>
<path
 fill="none" stroke="#5c5c5c" stroke-width="0.5" stroke-linecap="butt" stroke-linejoin="miter"
 d=""/>
<path
 fill="none" stroke="#5c5c5c" stroke-width="0.5" stroke-linecap="butt" stroke-linejoin="miter"
 d=""/>
<path
 fill="none" stroke="#5c5c5c" stroke-width="0.5" stroke-linecap="butt" stroke-linejoin="miter"
 d=""/>
<path
 fill="none" stroke="#5c5c5c" stroke-width="0.5" stroke-linecap="butt" stroke-linejoin="miter"
 d=""/>
<path
 fill="none" stroke="#5c5c5c" stroke-width="0.5" stroke-linecap="butt" stroke-linejoin="miter"
 d=""/>
<path
 fill="none" stroke="#5c5c5c" stroke-width="0.5" stroke-linecap="butt" stroke-linejoin="miter"
 d=""/>
<path
 fill="none" stroke="#5c5c5c" stroke-width="0.5" stroke-linecap="butt" stroke-linejoin="miter"
 d=""/>
<path
 fill="none" stroke="#5c5c5c" stroke-width="0.5" stroke-linecap="butt" stroke-linejoin="miter"
 d=""/>
<path
 fill="none" stroke="#5c5c5c" stroke-width="0.5" stroke-linecap="butt" stroke-linejoin="miter"
 d=""/>
<path
 fill="none" stroke="#5c5c5c" stroke-width="0.5" stroke-linecap="butt" stroke-linejoin="miter"
 d=""/>
<path
 fill="none" stroke="#5c5c5c" stroke-width="0.5" stroke-linecap="butt" stroke-linejoin="miter"
 d=""/>
<path
 fill="none" stroke="#5c5c5c" stroke-width="0.5" stroke-linecap="butt" stroke-linejoin="miter"
 d=""/>
<path
 fill="none" stroke="#5c5c5c" stroke-width="0.5" stroke-linecap="butt" stroke-linejoin="miter"
 d=""/>
<path
 fill="none" stroke="#5c5c5c" stroke-width="0.5" stroke-linecap="butt" stroke-linejoin="miter"
 d=""/>
<path
 fill="none" stroke="#5c5c5c" stroke-width="0.5" stroke-linecap="butt" stroke-linejoin="miter"
 d=""/>
<path
 fill="none" stroke="#5c5c5c" stroke-width="0.5" stroke-linecap="butt" stroke-linejoin="miter"
 d=""/>
<path
 fill="none" stroke="#5c5c5c" stroke-width="0.5" stroke-linecap="butt" stroke-linejoin="miter"
 d=""/>
<path
 fill="none" stroke="#5c5c5c" stroke-width="0.5" stroke-linecap="butt" stroke-linejoin="miter"
 d=""/>
<path
 fill="none" stroke="#5c5c5c" stroke-width="0.5" stroke-linecap="butt" stroke-linejoin="miter"
 d=""/>
<path
 fill="none" stroke="#5c5c5c" stroke-width="0.5" stroke-linecap="butt" stroke-linejoin="miter"
 d=""/>
<path
 fill="none" stroke="#5c5c5c" stroke-width="0.5" stroke-linecap="butt" stroke-linejoin="miter"
 d=""/>
<text x="19.6612" y="426.233" id="text1042">
  <tspan x="19.6612" y="426.233" fill="#000000"  font-variant="normal" font-weight="normal" font-style="normal" font-family="Bitstream Vera Sans" font-size="7.5" id="tspan1043">A</tspan>
</text>
<text x="27.015" y="426.233" id="text1044">
  <tspan x="27.015" y="426.233" fill="#d90000"  font-variant="normal" font-weight="normal" font-style="normal" font-family="Bitstream Vera Sans" font-size="7.5" id="tspan1045">C</tspan>
</text>
<path
 fill="#d90000" stroke="#000000" stroke-width="0.72" stroke-linecap="butt" stroke-linejoin="miter"
 d="M 39.84 423.541 A 2.5575,2.5575 0 0,1 34.725,423.541A 2.5575,2.5575 0 0,1 39.84,423.541Z"/>
<text x="42.3413" y="426.233" id="text1046">
  <tspan x="42.3413" y="426.233" fill="#000000"  font-variant="normal" font-weight="normal" font-style="normal" font-family="Bitstream Vera Sans" font-size="7.5" id="tspan1047">A</tspan>
</text>
<path
 fill="#d90000" stroke="#000000" stroke-width="0.72" stroke-linecap="butt" stroke-linejoin="miter"
 d="M 54.96 423.541 A 2.5575,2.5575 0 0,1 49.845,423.541A 2.5575,2.5575 0 0,1 54.96,423.541Z"/>
<path
 fill="#d90000" stroke="#000000" stroke-width="0.72" stroke-linecap="butt" stroke-linejoin="miter"
 d="M 60.3057 418.195 A 2.5575,2.5575 0 0,1 55.1907,418.195A 2.5575,2.5575 0 0,1 60.3057,418.195Z"/>
<path
 fill="#d90000" stroke="#000000" stroke-width="0.72" stroke-linecap="butt" stroke-linejoin="miter"
 d="M 60.3057 410.635 A 2.5575,2.5575 0 0,1 55.1907,410.635A 2.5575,2.5575 0 0,1 60.3057,410.635Z"/>
<path
 fill="#d90000" stroke="#000000" stroke-width="0.72" stroke-linecap="butt" stroke-linejoin="miter"
 d="M 60.3057 403.075 A 2.5575,2.5575 0 0,1 55.1907,403.075A 2.5575,2.5575 0 0,1 60.3057,403.075Z"/>
<text x="55.0407" y="398.207" id="text1048">
  <tspan x="55.0407" y="398.207" fill="#807b88"  font-variant="normal" font-weight="normal" font-style="normal" font-family="Bitstream Vera Sans" font-size="7.5" id="tspan1049">R</tspan>
</text>
<text x="55.0407" y="390.647" id="text1050">
  <tspan x="55.0407" y="390.647" fill="#d90000"  font-variant="normal" font-weight="normal" font-style="normal" font-family="Bitstream Vera Sans" font-size="7.5" id="tspan1051">U</tspan>
</text>
<text x="48.2836" y="386.867" id="text1052">
  <tspan x="48.2836" y="386.867" fill="#807b88"  font-variant="normal" font-weight="normal" font-style="normal" font-family="Bitstream Vera Sans" font-size="7.5" id="tspan1053">G</tspan>
</text>
<text x="55.247" y="383.087" id="text1054">
  <tspan x="55.247" y="383.087" fill="#807b88"  font-variant="normal" font-weight="normal" font-style="normal" font-family="Bitstream Vera Sans" font-size="7.5" id="tspan1055">Y</tspan>
</text>
<text x="55.247" y="375.527" id="text1056">
  <tspan x="55.247" y="375.527" fill="#000000"  font-variant="normal" font-weight="normal" font-style="normal" font-family="Bitstream Vera Sans" font-size="7.5" id="tspan1057">A</tspan>
</text>
<path
 fill="#d90000" stroke="#000000" stroke-width="0.72" stroke-linecap="butt" stroke-linejoin="miter"
 d="M 60.3057 365.275 A 2.5575,2.5575 0 0,1 55.1907,365.275A 2.5575,2.5575 0 0,1 60.3057,365.275Z"/>
<text x="55.0407" y="360.407" id="text1058">
  <tspan x="55.0407" y="360.407" fill="#807b88"  font-variant="normal" font-weight="normal" font-style="normal" font-family="Bitstream Vera Sans" font-size="7.5" id="tspan1059">C</tspan>
</text>
<text x="55.0407" y="352.847" id="text1060">
  <tspan x="55.0407" y="352.847" fill="#807b88"  font-variant="normal" font-weight="normal" font-style="normal" font-family="Bitstream Vera Sans" font-size="7.5" id="tspan1061">R</tspan>
</text>
<text x="54.8307" y="345.287" id="text1062">
  <tspan x="54.8307" y="345.287" fill="#000000"  font-variant="normal" font-weight="normal" font-style="normal" font-family="Bitstream Vera Sans" font-size="7.5" id="tspan1063">G</tspan>
</text>
<text x="48.6998" y="341.507" id="text1064">
  <tspan x="48.6998" y="341.507" fill="#d90000"  font-variant="normal" font-weight="normal" font-style="normal" font-family="Bitstream Vera Sans" font-size="7.5" id="tspan1065">A</tspan>
</text>
<path
 fill="#d90000" stroke="#000000" stroke-width="0.72" stroke-linecap="butt" stroke-linejoin="miter"
 d="M 60.3057 335.035 A 2.5575,2.5575 0 0,1 55.1907,335.035A 2.5575,2.5575 0 0,1 60.3057,335.035Z"/>
<path
 fill="#d90000" stroke="#000000" stroke-width="0.72" stroke-linecap="butt" stroke-linejoin="miter"
 d="M 60.3057 327.475 A 2.5575,2.5575 0 0,1 55.1907,327.475A 2.5575,2.5575 0 0,1 60.3057,327.475Z"/>
<path
 fill="#d90000" stroke="#000000" stroke-width="0.72" stroke-linecap="butt" stroke-linejoin="miter"
 d="M 60.3057 319.915 A 2.5575,2.5575 0 0,1 55.1907,319.915A 2.5575,2.5575 0 0,1 60.3057,319.915Z"/>
<path
 fill="#d90000" stroke="#000000" stroke-width="0.72" stroke-linecap="butt" stroke-linejoin="miter"
 d="M 60.3057 312.355 A 2.5575,2.5575 0 0,1 55.1907,312.355A 2.5575,2.5575 0 0,1 60.3057,312.355Z"/>
<path
 fill="#d90000" stroke="#000000" stroke-width="0.72" stroke-linecap="butt" stroke-linejoin="miter"
 d="M 60.3057 304.795 A 2.5575,2.5575 0 0,1 55.1907,304.795A 2.5575,2.5575 0 0,1 60.3057,304.795Z"/>
<path
 fill="#d90000" stroke="#000000" stroke-width="0.72" stroke-linecap="butt" stroke-linejoin="miter"
 d="M 60.3057 297.235 A 2.5575,2.5575 0 0,1 55.1907,297.235A 2.5575,2.5575 0 0,1 60.3057,297.235Z"/>
<path
 fill="#000000" stroke="#000000" stroke-width="0.72" stroke-linecap="butt" stroke-linejoin="miter"
 d="M 60.3057 289.675 A 2.5575,2.5575 0 0,1 55.1907,289.675A 2.5575,2.5575 0 0,1 60.3057,289.675Z"/>
<path
 fill="#000000" stroke="#000000" stroke-width="0.72" stroke-linecap="butt" stroke-linejoin="miter"
 d="M 72.5457 289.675 A 2.5575,2.5575 0 0,1 67.4307,289.675A 2.5575,2.5575 0 0,1 72.5457,289.675Z"/>
<path
 fill="#d90000" stroke="#000000" stroke-width="0.72" stroke-linecap="butt" stroke-linejoin="miter"
 d="M 72.5457 297.235 A 2.5575,2.5575 0 0,1 67.4307,297.235A 2.5575,2.5575 0 0,1 72.5457,297.235Z"/>
<path
 fill="#d90000" stroke="#000000" stroke-width="0.72" stroke-linecap="butt" stroke-linejoin="miter"
 d="M 72.5457 304.795 A 2.5575,2.5575 0 0,1 67.4307,304.795A 2.5575,2.5575 0 0,1 72.5457,304.795Z"/>
<path
 fill="#d90000" stroke="#000000" stroke-width="0.72" stroke-linecap="butt" stroke-linejoin="miter"
 d="M 72.5457 312.355 A 2.5575,2.5575 0 0,1 67.4307,312.355A 2.5575,2.5575 0 0,1 72.5457,312.355Z"/>
<path
 fill="#d90000" stroke="#000000" stroke-width="0.72" stroke-linecap="butt" stroke-linejoin="miter"
 d="M 72.5457 319.915 A 2.5575,2.5575 0 0,1 67.4307,319.915A 2.5575,2.5575 0 0,1 72.5457,319.915Z"/>
<path
 fill="#d90000" stroke="#000000" stroke-width="0.72" stroke-linecap="butt" stroke-linejoin="miter"
 d="M 72.5457 327.475 A 2.5575,2.5575 0 0,1 67.4307,327.475A 2.5575,2.5575 0 0,1 72.5457,327.475Z"/>
<path
 fill="#d90000" stroke="#000000" stroke-width="0.72" stroke-linecap="butt" stroke-linejoin="miter"
 d="M 72.5457 335.035 A 2.5575,2.5575 0 0,1 67.4307,335.035A 2.5575,2.5575 0 0,1 72.5457,335.035Z"/>
<text x="67.2807" y="345.287" id="text1066">
  <tspan x="67.2807" y="345.287" fill="#807b88"  font-variant="normal" font-weight="normal" font-style="normal" font-family="Bitstream Vera Sans" font-size="7.5" id="tspan1067">C</tspan>
</text>
<text x="67.487" y="352.847" id="text1068">
  <tspan x="67.487" y="352.847" fill="#807b88"  font-variant="normal" font-weight="normal" font-style="normal" font-family="Bitstream Vera Sans" font-size="7.5" id="tspan1069">Y</tspan>
</text>
<text x="67.0707" y="360.407" id="text1070">
  <tspan x="67.0707" y="360.407" fill="#807b88"  font-variant="normal" font-weight="normal" font-style="normal" font-family="Bitstream Vera Sans" font-size="7.5" id="tspan1071">G</tspan>
</text>
<path
 fill="#d90000" stroke="#000000" stroke-width="0.72" stroke-linecap="butt" stroke-linejoin="miter"
 d="M 72.5457 365.275 A 2.5575,2.5575 0 0,1 67.4307,365.275A 2.5575,2.5575 0 0,1 72.5457,365.275Z"/>
<text x="67.2807" y="375.527" id="text1072">
  <tspan x="67.2807" y="375.527" fill="#000000"  font-variant="normal" font-weight="normal" font-style="normal" font-family="Bitstream Vera Sans" font-size="7.5" id="tspan1073">U</tspan>
</text>
<text x="67.0707" y="383.087" id="text1074">
  <tspan x="67.0707" y="383.087" fill="#807b88"  font-variant="normal" font-weight="normal" font-style="normal" font-family="Bitstream Vera Sans" font-size="7.5" id="tspan1075">G</tspan>
</text>
<text x="67.487" y="390.647" id="text1076">
  <tspan x="67.487" y="390.647" fill="#d90000"  font-variant="normal" font-weight="normal" font-style="normal" font-family="Bitstream Vera Sans" font-size="7.5" id="tspan1077">A</tspan>
</text>
<text x="67.487" y="398.207" id="text1078">
  <tspan x="67.487" y="398.207" fill="#807b88"  font-variant="normal" font-weight="normal" font-style="normal" font-family="Bitstream Vera Sans" font-size="7.5" id="tspan1079">Y</tspan>
</text>
<path
 fill="#d90000" stroke="#000000" stroke-width="0.72" stroke-linecap="butt" stroke-linejoin="miter"
 d="M 72.5457 403.075 A 2.5575,2.5575 0 0,1 67.4307,403.075A 2.5575,2.5575 0 0,1 72.5457,403.075Z"/>
<path
 fill="#d90000" stroke="#000000" stroke-width="0.72" stroke-linecap="butt" stroke-linejoin="miter"
 d="M 72.5457 410.635 A 2.5575,2.5575 0 0,1 67.4307,410.635A 2.5575,2.5575 0 0,1 72.5457,410.635Z"/>
<path
 fill="#d90000" stroke="#000000" stroke-width="0.72" stroke-linecap="butt" stroke-linejoin="miter"
 d="M 72.5457 418.195 A 2.5575,2.5575 0 0,1 67.4307,418.195A 2.5575,2.5575 0 0,1 72.5457,418.195Z"/>
<path
 fill="#d90000" stroke="#000000" stroke-width="0.72" stroke-linecap="butt" stroke-linejoin="miter"
 d="M 77.8915 423.541 A 2.5575,2.5575 0 0,1 72.7765,423.541A 2.5575,2.5575 0 0,1 77.8915,423.541Z"/>
<text x="80.1865" y="426.233" id="text1080">
  <tspan x="80.1865" y="426.233" fill="#000000"  font-variant="normal" font-weight="normal" font-style="normal" font-family="Bitstream Vera Sans" font-size="7.5" id="tspan1081">R</tspan>
</text>
<path
 fill="#d90000" stroke="#000000" stroke-width="0.72" stroke-linecap="butt" stroke-linejoin="miter"
 d="M 93.0115 423.541 A 2.5575,2.5575 0 0,1 87.8965,423.541A 2.5575,2.5575 0 0,1 93.0115,423.541Z"/>
<text x="95.3065" y="426.233" id="text1082">
  <tspan x="95.3065" y="426.233" fill="#000000"  font-variant="normal" font-weight="normal" font-style="normal" font-family="Bitstream Vera Sans" font-size="7.5" id="tspan1083">C</tspan>
</text>
<text x="102.656" y="426.233" id="text1084">
  <tspan x="102.656" y="426.233" fill="#d90000"  font-variant="normal" font-weight="normal" font-style="normal" font-family="Bitstream Vera Sans" font-size="7.5" id="tspan1085">G</tspan>
</text>
<text x="110.426" y="426.233" id="text1086">
  <tspan x="110.426" y="426.233" fill="#d90000"  font-variant="normal" font-weight="normal" font-style="normal" font-family="Bitstream Vera Sans" font-size="7.5" id="tspan1087">U</tspan>
</text>
<text x="117.986" y="426.233" id="text1088">
  <tspan x="117.986" y="426.233" fill="#d90000"  font-variant="normal" font-weight="normal" font-style="normal" font-family="Bitstream Vera Sans" font-size="7.5" id="tspan1089">U</tspan>
</text>
<path
 fill="none" stroke="#000000" stroke-width="0.72" stroke-linecap="butt" stroke-linejoin="miter"
 d="M 14.6025 423.541 L 18.3825 423.541 "/>
<text x="7.5" y="426.233" id="text1090">
  <tspan x="7.5" y="426.233" fill="#000000"  font-variant="normal" font-weight="normal" font-style="normal" font-family="Bitstream Vera Sans" font-size="7.5" id="tspan1091">5&apos;</tspan>
</text>
</svg>
